<?xml version="1.0" encoding="utf-8"?>
<!-- Generator: Adobe Illustrator 21.1.0, SVG Export Plug-In . SVG Version: 6.00 Build 0)  -->
<svg version="1.1" id="Слой_1" xmlns="http://www.w3.org/2000/svg" xmlns:xlink="http://www.w3.org/1999/xlink" x="0px" y="0px"
	 viewBox="0 0 239.5 65.8" style="enable-background:new 0 0 239.5 65.8;" xml:space="preserve">
<style type="text/css">
	.st0{fill:#FFFFFF;}
</style>
<path id="XMLID_242_" class="st0" d="M12.6,31.1c7.4,0,12.7,5,12.7,12c0,7-5.2,12-12.7,12c-7.4,0-12.6-5-12.6-12
	C0,36.1,5.2,31.1,12.6,31.1z M12.6,50.2c3.7,0,6.2-2.9,6.2-7.1S16.3,36,12.6,36s-6.2,2.9-6.2,7.1S9,50.2,12.6,50.2z"/>
<path id="XMLID_240_" class="st0" d="M45.8,54.7h-4.8l-0.8-1.9c-1.3,1.5-3.3,2.3-5.6,2.3c-4,0-6.8-2.7-6.8-6.7V37.6h6.1v9.8
	c0,1.6,1.1,2.8,2.7,2.8c1.8,0,3.1-1.4,3.1-3.4v-9.2h6.1V54.7z"/>
<path id="XMLID_238_" class="st0" d="M57.1,37.6h4.1v4.6h-4.1v6.2c0,1.1,0.7,1.8,1.8,1.8c0.6,0,1.3-0.1,2-0.2l0.8,4.5
	c-1.5,0.4-2.9,0.6-4.2,0.6c-3.8,0-6.4-2.4-6.4-6v-6.9h-2.9v-4.6H51v-5h6.1V37.6z"/>
<path id="XMLID_235_" class="st0" d="M80.7,37.2c5.7,0,9.7,3.7,9.7,9c0,5.2-4,8.9-9.7,8.9c-5.7,0-9.7-3.7-9.7-8.9
	C71,40.9,75,37.2,80.7,37.2z M80.7,50.4c2.1,0,3.6-1.8,3.6-4.2c0-2.5-1.5-4.3-3.6-4.3c-2.1,0-3.5,1.8-3.5,4.3
	C77.2,48.6,78.6,50.4,80.7,50.4z"/>
<path id="XMLID_233_" class="st0" d="M94,42.2h-2.9v-4.6H94V36c0-3.6,2.6-6,6.4-6c1.3,0,2.7,0.2,4.2,0.6l-0.8,4.5
	c-0.7-0.1-1.4-0.2-2-0.2c-1.1,0-1.8,0.7-1.8,1.8v1h3.5v4.6H100v12.5H94V42.2z"/>
<g>
	<g>
		<path class="st0" d="M209.1,5.4c-7.8,0-14.8,3-20.1,7.8c-4.3-7.6-12.4-12.7-21.7-12.7c-12.7,0-23.2,9.5-24.7,21.8
			c-2.1-0.7-4.3-1-6.6-1c-12,0-21.7,9.9-21.7,21.9c0,12,9.7,21.9,21.7,21.9h73.1c16.4,0,29.6-13.5,29.6-29.9
			C238.8,18.9,225.5,5.4,209.1,5.4z M134.4,50.1c1.9,0,3.6-0.7,5.4-1.9l2.5,4.2c-2.7,1.8-5.8,2.7-8.8,2.7c-7.3,0-12.4-5-12.4-12
			c0-7,5.1-12,12.4-12c3,0,6.1,1,8.8,2.7l-2.5,4.2c-1.8-1.2-3.6-1.9-5.4-1.9c-4,0-6.8,2.9-6.8,7C127.6,47.2,130.4,50.1,134.4,50.1z
			 M150.6,55.1c-3.7,0-5.8-2.2-5.8-5.6V30.4h6.1v18.5c0,0.8,0.4,1.3,1.2,1.3c0.4,0,0.8-0.1,1.3-0.1l0.6,4.6
			C152.9,55,151.7,55.1,150.6,55.1z M164.4,55.1c-5.7,0-9.7-3.7-9.7-8.9c0-5.3,4-9,9.7-9c5.7,0,9.7,3.7,9.7,9
			C174.1,51.4,170.1,55.1,164.4,55.1z M194.9,54.9h-5.2l-0.8-2c-1.3,1.5-3.3,2.2-5.6,2.2c-4,0-6.8-2.8-6.8-6.7V37.5h6.1v9.9
			c0,1.6,1.3,2.8,2.9,2.8c1.8,0,3.3-1.4,3.3-3.4v-9.2h6.1V54.9z M216.4,54.9H211l-0.8-1.7c-1.3,1.3-3.1,1.9-5.1,1.9
			c-4.7,0-7.9-3.7-7.9-9c0-5.3,3.5-9,8.2-9c1.8,0,2.8,0.6,4.8,1.6v-8.4h6.1V54.9z"/>
		<path class="st0" d="M207,41.9c-2,0-3.4,1.7-3.4,4.2c0,2.4,1.5,4.2,3.5,4.2c1.8,0,3.2-1.4,3.2-3.3v-1.8
			C210.2,43.3,208.8,41.9,207,41.9z"/>
		<path class="st0" d="M164.4,41.9c-2.1,0-3.5,1.8-3.5,4.3c0,2.5,1.4,4.2,3.5,4.2s3.6-1.8,3.6-4.2C167.9,43.6,166.4,41.9,164.4,41.9
			z"/>
	</g>
</g>
</svg>
