<?xml version="1.0" encoding="utf-8"?>
<!-- Generator: Adobe Illustrator 21.1.0, SVG Export Plug-In . SVG Version: 6.00 Build 0)  -->
<svg version="1.1" id="Слой_1" xmlns="http://www.w3.org/2000/svg" xmlns:xlink="http://www.w3.org/1999/xlink" x="0px" y="0px"
	 viewBox="0 0 1000 938" style="enable-background:new 0 0 1000 938;" xml:space="preserve">
<style type="text/css">
	.st0{opacity:0.3;fill:none;stroke:#000000;stroke-width:2;stroke-miterlimit:10;}
	.st1{opacity:0.3;fill:none;stroke:#222221;stroke-width:4;stroke-miterlimit:10;stroke-dasharray:4,4;}
	.st2{opacity:0.3;fill:#222221;}
	.st3{opacity:0.3;fill:#272425;}
	.st4{opacity:0.3;}
	.st5{fill:#222221;}
</style>
<path class="st0" d="M558.7,393.2"/>
<path class="st1" d="M717.4,168.2c-8,4.4-15.3,10-22.1,17.4c-20.4,22.3-26.6,51.3-33.5,79.6c-6.4,26.1-14.7,52.4-27.8,75.9
	c-10.1,18.2-30.5,41-52,52.1"/>
<path class="st1" d="M405.2,452.5H287"/>
<path class="st1" d="M589.8,498.7c27,11,42.6,39.6,49.5,69.1c7.4,31.6-0.8,65.3,10.8,96.2c6.4,17.1,32.1,52.3,74.1,56.1"/>
<circle class="st2" cx="723.9" cy="163.5" r="5.5"/>
<circle class="st3" cx="729.9" cy="720.6" r="5.5"/>
<circle class="st2" cx="280.9" cy="452.7" r="5.5"/>
<circle class="st1" cx="504.3" cy="451.8" r="92.7"/>
<g class="st4">
	<path class="st5" d="M504,400.2l-53,39.5c-0.4,0.3-0.7,0.8-0.7,1.3v62.4c0,0.9,0.7,1.7,1.7,1.7h106c0.9,0,1.7-0.7,1.7-1.7V441
		c0-0.5-0.2-1-0.7-1.3l-53-39.5C505.4,399.7,504.6,399.7,504,400.2z M489.9,428.5c1.6-2.9,3.8-5.1,6.6-6.6c2.8-1.5,6-2.2,9.6-2.2
		c3,0,5.8,0.6,8.1,1.8c2.4,1.2,4.2,2.9,5.4,5.1s1.9,4.6,1.9,7.2c0,3.1-1,5.9-2.9,8.4c-2.4,3.1-5.4,4.7-9.2,4.7c-1,0-1.8-0.2-2.3-0.5
		c-0.5-0.4-0.9-0.9-1-1.6c-1.4,1.4-3.1,2.1-4.9,2.1c-2,0-3.7-0.7-5-2.1s-2-3.2-2-5.5c0-2.9,0.8-5.4,2.4-7.8c1.9-2.9,4.4-4.3,7.5-4.3
		c2.2,0,3.8,0.8,4.8,2.5l0.2-0.7c0.2-0.8,0.8-1.3,1.6-1.3h1.4c1.1,0,1.9,1,1.6,2l-2.3,11c-0.2,0.8-0.3,1.4-0.3,1.6
		c0,0.3,0.1,0.5,0.2,0.7s0.3,0.2,0.5,0.2c0.6,0,1.3-0.3,2.3-1.1c1.2-0.9,2.2-2.2,3-3.7c0.8-1.6,1.2-3.2,1.2-4.8c0-3-1.1-5.5-3.2-7.5
		c-2.2-2-5.2-3-9-3c-3.3,0-6.1,0.7-8.3,2c-2.3,1.3-4,3.2-5.2,5.7c-1.2,2.4-1.7,5-1.7,7.6c0,2.5,0.7,4.9,1.9,7
		c1.3,2.1,3.1,3.6,5.4,4.6s5,1.4,8,1.4c2.9,0,5.4-0.4,7.5-1.2c1.8-0.7,3.3-1.7,4.5-3c0.3-0.4,0.8-0.6,1.3-0.6l0,0
		c1.4,0,2.2,1.7,1.3,2.7c-1,1.2-2.3,2.2-3.8,3.1c-2.9,1.6-6.4,2.4-10.5,2.4c-4,0-7.5-0.7-10.4-2c-2.9-1.4-5.1-3.3-6.5-6
		c-1.4-2.6-2.1-5.5-2.1-8.6C487.5,434.7,488.3,431.5,489.9,428.5z M456.9,443.3l35.8,24c0.9,0.6,1,2,0.1,2.7L457,497.7
		c-1.1,0.9-2.7,0.1-2.7-1.3v-51.7C454.3,443.3,455.7,442.5,456.9,443.3z M461.2,498.8l42.8-33.1c0.6-0.5,1.4-0.5,2,0l42.8,33.1
		c1.3,1,0.6,3-1,3h-85.7C460.6,501.8,459.9,499.8,461.2,498.8z M555.8,499.7L517.3,470c-0.9-0.7-0.9-2.1,0.1-2.7l35.8-24
		c1.1-0.7,2.6,0.1,2.6,1.4L555.8,499.7L555.8,499.7z M507,431.5c0.6,0.7,1,1.8,1,3.1c0,1.2-0.2,2.5-0.7,4c-0.5,1.4-1,2.5-1.7,3.2
		c-0.4,0.5-0.9,0.9-1.4,1.1c-0.6,0.3-1.2,0.5-1.9,0.5c-0.9,0-1.7-0.4-2.3-1.1c-0.6-0.7-0.9-1.8-0.9-3.4c0-1.2,0.2-2.5,0.7-4
		s1.1-2.6,2-3.4s1.8-1.2,2.9-1.2C505.6,430.4,506.4,430.8,507,431.5z"/>
</g>
<path class="st2" d="M766.8,51.9c2.7,4.3,5,8.2,7.5,12.7c2.1,5,7,11,11.8,13.6c8.1,4.5,8.4,10.4,19.5,11c3.3,0.2,6.7-0.1,10-0.1
	c4,0,7.8-0.2,11.5-0.5c3.6-0.3,33.8-3.6,33.8-6.7c0-1.2-1.5-4.2-1.8-4.9c-1.5-3.3-2-3.6-2-7.8c0-3.6-0.5-3.5-2.2-6.6
	c-1.3-2.4-2.5-4.9-2.5-7.8c0-2.6,1.1-10,2.4-12c2-3.2,3.3-2.6,4,0.9c0.5,1.7,0.9,2.8,1.4,3.8c2.7,5.9,4.2,12.9,7.5,19
	c3.6,10.5,3.5,14.8,10.6,24.8c7.2,8.1,15.6,13.8,21.6,20.5c1.3,1.4,3.1,4.7,3.1,4.7c1.3,6.2,3.1,22.9-0.9,28.1
	c0.2,5.8,0.1,10.4,1.1,16.1c2,6.6-4,7.2-4,9.1c0,4.2-11.4,8.2-14.9,8.6c-4.8,0.6-8.3-1.1-15.4-5.1c-2.5-1.4-4.8-3-6-5
	c-0.9-1.6-4-2.7-5.6-1.8c-4.5,2.5-10.1,4.8-15.6,6c-8.7,1.9-16.9,2-17.8,2.5c-14.8,8.3-15.5,11.8-33.1,15.6
	c-3.5,0.8-6.9,1.4-8.2,0.9c-2-0.7-13.9-2.9-8.5-7.4c0.9-0.7,2-0.7,2-1.9c0-2.2-1.1-2.1-3.1-2.3c-1.2-0.1-2,0.1-4.4,0.5
	c-4.8,1-14.2,2.4-17.9-0.9c-4-3.5-0.2-7.7,3.3-9.6c-0.5-1.7-1.5-2.1-2.9-3.2c-1.8-1.4-3.2-2.7-3.5-5.9c-0.3-3.7,3-9.5,3-12.1
	c0-0.4,0.3-3.3,0.3-3.3c-0.2-5-0.5-10.1-0.7-15.1c0.3-2.6,0.6-5.1,0.9-7.7c0.6-8.6,0.3-11.5-3.3-19.6c-0.7-3-1.3-9-5.3-6.2
	c-1.6,1.1-2.8,3.6-3.4,6.1c-2.2,9.4-0.7,13.8-6.6,23.1c-1.8,2.7-4,5.1-7,6.3c-4,1.6-13.6-1.9-13.6-7.9c0-1.2-1.9-3.9-3.1-4
	c-0.4,0-0.8,0.3-1.8,1c0,0-0.9,2.4-1.1,2.7c-0.2,0.4,0.3,2.1-1.2,1.3c-7.8-4.1-7.3-13.4-8.1-22c0-0.5,0-1.1,0-1.6
	c-0.3-0.3-0.6-0.6-0.9-0.9c-1.7-2.2-1.1-3.7,0.2-5.1c0.5-0.6,1.1-1.2,1.7-1.8c0.9-1.7,0.9-1.4,0.9-3.4c-0.7-2.1,1.1-2.6,3.2-3.8
	c1.3-0.8,2.6-1.7,3.7-2.7c1-0.9,2-1.8,3-2.7c1.4-1.4,2.4-2.1,3.5-3.2c1.6-1.5,2.7-2.6,4.1-4.3c0.7-2.1,0.5-1.7,2.2-3.1
	c3.1-2.1-0.4-4.4-2-4.4c-4.3-0.1-6.2,3.2-7.8,6.2c-0.2,0.5-0.4,1.1-0.6,1.6c-0.1,0.6-0.3,2.4-1.2,2.1c-0.5-0.1-0.5-1.4-0.5-2.3
	c0-3.2,1.5-6,3.5-8.5c2.2-2.7,3.3-4,6.6-5.3c4.1-1,8.1-1.4,12-2.9c2.3-1.6,3.2-2.9,4.2-4.6c2.8-5,2.7-6.1,2.4-11.9
	c-0.1-1.8-0.3-3.5-0.4-5.3c-0.2-2.5-0.2-3.2,0.2-5.6c0.2-1.2,0.3-2.6,1.3-2.6c1.6,0.1,1.3,1.6,2,2.7c0.9,1.5-0.5,3.6,2.7,5.5
	c0.6,0.3,1.3,0.4,3,0.5c3,1.3,2.4,5.3,3.4,5.5c1.3,0.3,2.3,0.9,3.5,1.3c1-0.4,1.9-1,2.8-1.7c2.8-2.3,4.6-4.4,7.8-6.4
	c1.4-1.6,3.6-2.5,4,0.2c0.3,2.2,0.2,3.9,0.2,6.1C765.1,44.5,765,49,766.8,51.9z"/>
<path class="st2" d="M15.2,517.7c0,0,0.4,0,1.1-0.1c0.7-0.1,1.8-0.3,3-0.7c1.3-0.4,2.8-1,4.5-1.8s3.5-1.9,5.4-3.2s3.8-3,5.6-4.8
	c1.9-1.8,3.7-4,5.4-6.2c1.7-2.3,3.4-4.7,4.9-7.4c0.4-0.7,0.8-1.3,1.2-2s0.7-1.3,1.1-2c0.7-1.3,1.4-2.7,2.1-4.1
	c0.7-1.4,1.3-2.8,1.9-4.2c0.6-1.4,1.1-2.9,1.6-4.3c0.3-0.7,0.5-1.4,0.8-2.1c0.2-0.7,0.5-1.4,0.7-2.1c0.5-1.4,1-2.8,1.4-4.2
	c0.5-1.4,0.9-2.7,1.4-4s0.9-2.6,1.4-3.8c0.2-0.6,0.5-1.2,0.7-1.8c0.2-0.6,0.4-1.2,0.6-1.8c0.4-1.2,0.8-2.3,1.3-3.4
	c0.3-0.8,0.6-1.5,0.8-2.2c0.4-3.6,1.2-7,2.6-9.9c5.3-10.9,25.3-24,39.4-25.8c14.2-1.8,35.5-4.2,50.5-4.5c15.1-0.2,22.1-1,32.5-6
	s14.4-8.9,17.7-11.1s5.3-2.9,7-7.2c1.7-4.2,2.2-9.4,4-18.8s9.4-21.5,9.6-22.9s-0.7-9.8,0.4-14.2c1.2-4.5,4.7-11,5.2-14.8
	c0.4-3.7-0.4-8,0.9-8.3s4.4,4.2,5.4,9.5s2.5,12.6,3.7,13.2c1.2,0.7,1.5-2.3,2.8-5.2c1.4-2.8,3.4-5.3,3.1-8.8c-0.3-3.5-2.6-4.9-2-5.6
	c0.5-0.7,4.2,1.3,4.7,5.5s-0.3,15.3,2.5,16.8s7.5,2.1,9.9,4.2c2.5,2.1,4.7,4.7,5,5.7c0.2,0.9-0.4,3.3,1.2,4s9.7,3.1,12.6,4.2
	c2.9,1,5.6,0.4,6.1,3.5s-2.3,7.1-1.6,9s-2,11-6.2,12.3s-7.4,0.5-8.5,1.4c-1.2,0.9-3.1,0.9-5.3,0.4c-2.1-0.5-3.5-2.6-4.5-2.6
	c-0.9,0-1.8,1.6-2.9,1.4s-5.3-3.2-6.5-3s0.1,7.1,0.6,13.5s-0.7,20.2-1.5,24.7s0.4,8.2,0.9,15.1c0.6,6.9,0.2,16.7-3.6,26.8
	c-3.7,10.1-8.2,23.6-9,31.1s-2.7,18.3-3.4,21.8s-0.6,16.9-1,25.9c-0.4,9.1-1.2,16.7-0.2,21.8s2,8.1,4.6,8.3c2.5,0.3,6.4,1.4,7.3,4
	c0.9,2.6,1,3.6,0.3,4.4c-0.7,0.8-1.6,0.5-1.6,0.5s-0.1,0.8-1.6,1.4c-1.6,0.6-2.8-0.3-2.8-0.3s-0.8,0.8-2,0.8c-1.3,0-2.4-0.3-2.4-0.3
	s0.6,0.7,0.9,2.8s0.2,3.8-0.6,4.3c-0.8,0.4-2,0-2,0s-0.2,1.3-2.9,1.4s-3.6-0.9-3.6-0.9s-1,1.4-4.1,1.2c-3-0.2-4.7-1.5-4.5-3.3
	s-1.5-3.1-2.5-3.7c-1-0.5-0.1-3.3-1.1-4.3s-0.1-7-2.2-10.7c-2.1-3.7-4.5-3.7-4.8-6.2s1.2-7.5,1-11.7s-0.3-18.8-0.6-27.8
	c-0.2-8.9-0.7-14.4-1.1-16.2c-0.4-1.8,0.5-6.3-0.7-7.7s-1.5-3.7-1.2-5.3c0.3-1.6,0.1-3.4-1.2-3.5s-9.8-0.2-22.4-2.1
	c-12.6-1.9-36.9-9.8-44.3-11.4s-9.2-1-9.5,0.5s1.4,6.2-1.1,7.3c-2.5,1.1-11.4-4.2-11.8-3.3c-0.4,0.9-0.1,13.3-6.1,20.4
	c-5.9,7.1-21.7,15.5-27.8,21.8c-6.1,6.4-9.3,8.3-10.7,18c-1.4,9.6-0.7,17.4,2.2,18.3c3,0.9,6.1,1.6,6.8,4.5c0.8,3-0.6,3.4-0.6,3.4
	s0,1.9-2.6,2.5s-4.4-0.6-4.4-0.6s-1.4,1.2-3.8,1.1c-2.4-0.1-3.4-2.5-3.4-2.5s-1.4,0.2-2.1-0.9c-0.7-1.1-2.5-4.8-2.8-8.8
	c-0.3-3.9-1.1-12.8-1.3-16.2c-0.2-3.3-1.7-11.9-2.7-12.2s-10.5,7.7-14,14.5s-4.8,7.8-5.6,15s-0.2,11.5,1,12.1
	c1.2,0.7,2.8-0.1,4.9,2.1c2.1,2.1,3.5,4.4,3.2,6.2s-1.6,1.8-1.6,1.8s-0.5,1.7-3.6,2.2c-3,0.5-4.6-0.4-4.6-0.4s-1.8,1-5,0.4
	c-3.3-0.6-3.3-2.7-3.3-2.7s-1.5-1-1.8-2.4c-0.2-1.3-1.8-1.6-1.9-2.7c-0.2-1.1,1.7-6.7,2.2-12.1c0.5-5.3,1.6-17.5,1.3-21.8
	c-0.3-4.3-1.6-8.5-0.2-10.4s15.8-11.9,21.8-18.8s10.6-15.8,12.2-25.4c0.3-2,0.4-4.3,0.4-6.8c-0.3,0.8-0.7,1.6-1,2.4
	c-0.3,0.7-0.6,1.4-1,2.1s-0.7,1.4-1.1,2.1c-0.7,1.4-1.4,2.9-2.2,4.3s-1.5,2.9-2.3,4.2c-0.8,1.4-1.6,2.8-2.5,4.2
	c-0.4,0.7-0.9,1.4-1.3,2c-0.4,0.7-0.9,1.3-1.4,2c-1.8,2.6-3.8,5-5.9,7.3c-2.1,2.2-4.2,4.3-6.4,6s-4.4,3.3-6.5,4.4
	c-2.1,1.2-4.2,2.1-6,2.8c-1.9,0.7-3.5,1.1-4.9,1.3c-2.8,0.5-4.4,0.3-4.4,0.3L15.2,517.7z"/>
<path class="st3" d="M734,771.2c5.6,3.3,25,34.4,36.9,39.7c0,0,3.1,16.8,5.6,22.2c2.5,5.5,1.2,4.8,1.7,14c0.5,9.3,6.3,26,2.3,42
	s-3.1,9.6-4.8,12.7c-1.7,3.1-5.6,2-7.1,2.8s-2.5,2.8-2.5,5.5c0,2.6,0.8,2.8,4.8,3.8s9.1,0,11.4-0.3c2.3-0.3,2.1-1.8,3.6-4.8
	s8.4-18.8,11.7-27.3c3.3-8.4,7.1-25,7.1-25s-1.2,12.9,2.1,22.5s13.4,17,13.4,17s-12.7,4.1-14.2,5.5s-2.5,4.5-0.5,6.5
	s3.4,1.1,4.5,1.2c1.2,0.1,1.3,0,2.7,0.7s6.7-0.2,10.3-1.2s1,1.5,1.7,2.6s3,1.6,5.6,1.7c2.6,0.1,2.6-0.2,4.5,0.2s21.2,0.2,31.2-0.4
	c8.4-0.6,6.3-3.5,16.7-4.1c1.9-0.1,8.7,1.4,11.6,1.3c19.1-0.6,11-1.5,35.9-1.9c9.8-0.2,17.9,7.5,30.5,8.9s16.4-4.3,4.9-6.6
	c-10.4-2.1-15.6-7.7-29.9-10.8c-21.8-4.7-42.6,6.3-45-14.2c-0.7-5.6-1.2-22.1-1.2-22.1s-11.9-44.6-27.4-61.5S833,787.6,833,787.6
	s-8.3-6-12.6-13.2c-4.3-7.3-1.8-31.7-2.5-36.2s-1.5-4.8-1.2-6s2.6-15.9,1.7-19.8c-1-4-2-3.5-5.1-1.5s-9.3,8.9-9.9,9.8
	c-0.7,0.8-1.7,0.3-6.9-0.8c-5.3-1.2-11.5,0.4-11.5,0.4s-7.3-8.7-8.7-9s-1.6,1.3-1.5,4.4c0.1,3.1,2.4,6.9,2.2,7.9s-3.8,3.4-4.7,4.2
	s-1.7,1-2.5,2.1c-0.8,1.2-0.2,2-0.2,2.6s-3.6,3.9-4.1,6s1.2,2.6,1.8,3.6c0.6,0.9,0.1,1.7-0.2,4.2c-0.3,2.6,2.8,5.5,4,7.5
	s3.3,2.7,3.9,4.8c0.6,2.1,0.2,5.5,0.2,5.5s-0.8,1.8-2.6,4.6s-2,11.1-2,12.4c0,1.3-15.2-10.1-20.3-12.9c-5.1-2.8-11.1-11.4-14-13.1
	c-3-1.7-13.1-5.3-14.5-5.7s-1.7-0.3-3.2-0.2c-1.6,0.2-2.1,0.7-2.7,1.3c-0.7,0.6-1.1,0.7-1.3,2.5s1.2,3.2,0.9,4.9s1.3,1.7,4.3,4
	s3.6,1.3,5,1.7C726.1,763.7,728.4,767.9,734,771.2z"/>
</svg>
