<?xml version="1.0" encoding="utf-8"?>
<!-- Generator: Adobe Illustrator 21.1.0, SVG Export Plug-In . SVG Version: 6.00 Build 0)  -->
<svg version="1.1" id="Слой_1" xmlns="http://www.w3.org/2000/svg" xmlns:xlink="http://www.w3.org/1999/xlink" x="0px" y="0px"
	 viewBox="0 0 150 150" style="enable-background:new 0 0 150 150;" xml:space="preserve">
<style type="text/css">
	.st0{fill:#FFFFFF;}
</style>
<path class="st0" d="M75,0C33.6,0,0,33.6,0,75s33.6,75,75,75s75-33.6,75-75S116.4,0,75,0z M61.2,111.4c-6.1-0.7-11.8-2.8-16.8-5.9
	l0,0l-19.2,5L30.9,92c-3.8-6.2-6-13.5-6-21.3c0-22.6,18.4-41,41-41c12.3,0,23.3,5.4,30.8,13.9c6.4,7.2,10.2,16.7,10.2,27.1
	c0,22.6-18.4,41-41,41C64.4,111.7,62.8,111.6,61.2,111.4z M124.8,119.2l-18.3-4.7l0,0c-6,3.7-13,5.9-20.6,5.9
	c-5.2,0-10.2-1-14.7-2.9c23.4-2.6,41.7-22.6,41.7-46.7c0-8-2-15.6-5.6-22.2c10.6,7,17.6,19,17.6,32.7c0,7.4-2.1,14.4-5.7,20.3
	L124.8,119.2z"/>
</svg>
