<?xml version="1.0" encoding="utf-8"?>
<!-- Generator: Adobe Illustrator 21.1.0, SVG Export Plug-In . SVG Version: 6.00 Build 0)  -->
<svg version="1.1" id="Layer_1" xmlns="http://www.w3.org/2000/svg" xmlns:xlink="http://www.w3.org/1999/xlink" x="0px" y="0px"
	 viewBox="0 0 305.7 134" style="enable-background:new 0 0 305.7 134;" xml:space="preserve">
<style type="text/css">
	.st0{fill:#FF0813;}
</style>
<g>
	<path class="st0" d="M146.7,44.9L146.7,44.9c14.4,0,25.7,4.7,31.6,9.1c1.5,1.1,3.5,0.8,4.6-0.7s0.8-3.5-0.7-4.6
		c-8.7-6.5-22-10.4-35.5-10.4l0,0c-13.6,0-26.9,3.9-35.6,10.4c-1.4,1.1-1.7,3.1-0.7,4.6c0.6,0.9,1.6,1.3,2.6,1.3
		c0.7,0,1.4-0.2,2-0.7C120.8,49.6,132.3,44.9,146.7,44.9"/>
	<path class="st0" d="M179,59.4c0.8-1,0.6-2.4-0.3-3.2c-7.5-6.2-19.5-9.9-32-9.9c-12.6,0-24.6,3.7-32.1,9.9c-1,0.8-1.1,2.2-0.3,3.2
		c0.4,0.5,1.1,0.8,1.7,0.8c0.5,0,1-0.2,1.4-0.5c6.6-5.5,17.9-8.9,29.2-8.9c11.5,0,22.4,3.3,29.2,8.9C176.8,60.5,178.2,60.4,179,59.4
		"/>
	<path class="st0" d="M98.4,28.1L98.4,28.1c1.4,0,2.7-0.4,3.9-1c1.7-1,3-2.7,3.4-4.6c0.5-1.9,0.2-4-0.8-5.7
		c-1.3-2.3-3.8-3.7-6.5-3.7c-1.3,0-2.7,0.4-3.8,1c-1.7,1-3,2.7-3.5,4.6s-0.2,4,0.8,5.7C93.3,26.6,95.8,28.1,98.4,28.1"/>
	<path class="st0" d="M146.6,33.9c4.1,0,7.5-3.4,7.5-7.5s-3.4-7.5-7.5-7.5s-7.5,3.4-7.5,7.5S142.5,33.9,146.6,33.9"/>
	<path class="st0" d="M146.6,15c4.1,0,7.5-3.4,7.5-7.5S150.7,0,146.6,0s-7.5,3.4-7.5,7.5C139.1,11.7,142.5,15,146.6,15"/>
	<path class="st0" d="M124.6,21.7c-4,1.1-6.4,5.2-5.3,9.2c0.9,3.2,3.8,5.5,7.2,5.5h0.2c0.6,0,1.2-0.1,1.9-0.3
		c1.9-0.5,3.5-1.8,4.5-3.5s1.2-3.8,0.7-5.7c-0.9-3.3-3.9-5.5-7.2-5.5C126,21.5,125.3,21.5,124.6,21.7"/>
	<path class="st0" d="M100.8,34.9c-0.5,1.9-0.2,4,0.8,5.7c1.3,2.2,3.8,3.7,6.4,3.7l0,0c1.3,0,2.7-0.4,3.8-1c1.7-1,3-2.7,3.4-4.6
		c0.5-1.9,0.2-4-0.8-5.7c-1.4-2.3-3.8-3.7-6.5-3.7c-1.3,0-2.7,0.4-3.8,1C102.5,31.3,101.3,33,100.8,34.9"/>
	<path class="st0" d="M164.6,36.2c0.7,0.2,1.3,0.3,2,0.3c3.4,0,6.4-2.3,7.2-5.5c1.1-4-1.3-8.1-5.3-9.2c-0.6-0.2-1.3-0.3-2-0.3
		c-3.4,0-6.4,2.3-7.2,5.5C158.3,31,160.6,35.1,164.6,36.2"/>
	<path class="st0" d="M169.6,18.1c0.7,0.2,1.3,0.3,2,0.3c3.4,0,6.4-2.3,7.2-5.5c1.1-4-1.3-8.1-5.3-9.2c-0.6-0.2-1.3-0.3-2-0.3
		c-3.4,0-6.3,2.3-7.2,5.5C163.2,12.8,165.6,17,169.6,18.1"/>
	<path class="st0" d="M177.9,38.6c0.5,1.9,1.7,3.6,3.4,4.6c1.2,0.7,2.5,1,3.8,1c2.6,0,5.1-1.4,6.5-3.7c1-1.7,1.3-3.8,0.8-5.7
		s-1.7-3.6-3.4-4.6c-1.2-0.7-2.5-1-3.8-1c-2.7,0-5.1,1.4-6.5,3.7C177.7,34.7,177.4,36.7,177.9,38.6"/>
	<path class="st0" d="M191,27c1.2,0.7,2.5,1,3.8,1c2.6,0,5.1-1.4,6.5-3.7c1-1.7,1.3-3.7,0.8-5.7c-0.5-1.9-1.7-3.6-3.5-4.6
		c-1.2-0.7-2.5-1-3.8-1c-2.6,0-5.1,1.4-6.5,3.7c-1,1.7-1.3,3.8-0.8,5.7C188,24.4,189.2,26,191,27"/>
	<path class="st0" d="M121.6,18.3L121.6,18.3c0.7,0,1.4-0.1,2-0.3c4-1.1,6.4-5.2,5.3-9.2c-0.9-3.3-3.9-5.5-7.3-5.5
		c-0.7,0-1.3,0.1-2,0.3c-4,1.1-6.4,5.2-5.3,9.2C115.3,16,118.3,18.3,121.6,18.3"/>
	<path class="st0" d="M259,102.3V72.1c0-2.4-1.9-4.4-4.4-4.4c-2.4,0-4.3,1.9-4.3,4.4v30.1c0,2.4,1.9,4.4,4.3,4.4
		C257.1,106.6,259,104.7,259,102.3"/>
	<path class="st0" d="M134.6,98.2h-8.2c-0.3,0-0.5-0.2-0.5-0.5V72.8c0-2.3-1.9-4.2-4.2-4.2s-4.2,1.9-4.2,4.2v31
		c0,1.3,1.1,2.4,2.4,2.4h14.8c2.2,0,4-1.8,4-4C138.6,100,136.8,98.2,134.6,98.2"/>
	<path class="st0" d="M245.9,100.9V71.8c0-2.2-1.8-4-4-4s-4,1.8-4,4v17.4l-0.3,0.2l-0.2-0.1l-10.1-17.9c-1-1.8-2.7-2.7-5-2.7
		c-2.9,0-5.4,2.4-5.4,5.3v28.6c0,2.2,1.9,4,4.1,4c2.2,0,4.1-1.8,4.1-4V85.2c0-0.1,0.1-0.2,0.3-0.2l0.2,0.1l10.4,18.4
		c0.9,1.6,2.6,2.7,4.6,2.7C243.5,106.2,245.9,103.8,245.9,100.9"/>
	<path class="st0" d="M288.6,67.8c-2.2,0-4,1.8-4,4v17.4l-0.3,0.2l-0.2-0.1L274,71.4c-1-1.8-2.7-2.7-5-2.7c-2.9,0-5.4,2.4-5.4,5.3
		v28.6c0,2.2,1.9,4,4.1,4s4.1-1.8,4.1-4V85.2c0-0.1,0.1-0.2,0.3-0.2l0.2,0.1l10.4,18.4c0.9,1.6,2.6,2.7,4.6,2.7
		c2.9,0,5.3-2.4,5.3-5.3V71.8C292.6,69.6,290.8,67.8,288.6,67.8"/>
	<path class="st0" d="M92.6,72.7c0-2.2-1.8-3.9-3.9-3.9c-1.1,0-2.1,0.5-2.9,1.2l-9.3,9.8c-0.1,0.1-0.2,0.2-0.4,0.2s-0.3-0.1-0.4-0.2
		L66.4,70c-0.7-0.7-1.7-1.2-2.8-1.2c-2.2,0-3.9,1.8-3.9,3.9c0,1,0.4,2,1,2.7L72,88.5l0.2,13.7c0,2.2,1.8,4,4,4s4-1.8,4-4l0.2-13.7
		l11.3-13.1C92.2,74.7,92.6,73.8,92.6,72.7"/>
	<path class="st0" d="M44.3,97.6c-5.6,0-10.1-4.5-10.1-10.1c0-5.6,4.5-10.1,10.1-10.1s10.1,4.5,10.1,10.1
		C54.4,93.1,49.9,97.6,44.3,97.6 M44.3,68.8c-10.3,0-18.7,8.4-18.7,18.7s8.4,18.7,18.7,18.7S63,97.8,63,87.5
		C63,77.2,54.7,68.8,44.3,68.8"/>
	<path class="st0" d="M196.8,90.6h-3.9v-6.2l4.2,5.6l0.1,0.2C197.2,90.4,197,90.6,196.8,90.6 M192,70c-0.8-0.9-1.9-1.5-3.2-1.5
		c-2.4,0-4.3,1.2-4.3,3.6v30.1c0,2.3,1.8,4.1,4.1,4.1s4.3-1.8,4.3-4.1v-3.3h10.3l4.3,5.8c0.7,1,1.9,1.6,3.2,1.6c2.2,0,4-1.8,4-4
		c0-0.9-0.3-1.8-0.8-2.4L192,70z"/>
	<path class="st0" d="M103.8,90.6h-3.9c-0.2,0-0.3-0.2-0.3-0.3l0.1-0.2l4.2-5.6L103.8,90.6L103.8,90.6z M108,68.5
		c-1.3,0-2.5,0.6-3.2,1.5l-22,29.7c-0.5,0.7-0.8,1.5-0.8,2.4c0,2.2,1.8,4,4,4c1.3,0,2.5-0.6,3.2-1.6l4.3-5.8h10.3v3.3
		c0,2.3,2.1,4.1,4.3,4.1c2.3,0,4.1-1.8,4.1-4.1V72.8C112.2,70.4,110.3,68.5,108,68.5"/>
	<path class="st0" d="M181.3,100.3c0.6-0.7,0.9-1.6,0.9-2.5c0-2.2-1.8-4-4-4c-0.7,0-1.3,0.2-1.8,0.4l-3.3,2.2
		c-1.5,1-3.4,1.6-5.3,1.6c-5.5,0-9.9-4.6-9.9-10.3s4.4-10.3,9.9-10.3c2,0,3.8,0.6,5.3,1.6l3.2,2.1c0.5,0.3,1.2,0.4,1.8,0.4
		c2.2,0,4-1.8,4-4c0-1-0.3-1.9-0.9-2.5c-3.1-3.6-7.6-5.9-12.9-5.9c-10.3,0-18.6,8.3-18.6,18.6c0,11.6,9.8,18.6,17.6,18.6
		C172.7,106.3,178.3,103.9,181.3,100.3"/>
	<path class="st0" d="M12,85.4c-2.4,0-4.4-1.8-4.4-4s2-4,4.4-4s4.4,1.8,4.4,4C16.4,83.6,14.4,85.4,12,85.4 M25.7,102.5
		c0-0.6-0.2-1.2-0.4-1.8L19.2,91c3-1.6,5.3-5.3,5.3-9.5c0-7-4.9-12.2-12-12.6c-4-0.2-6.9,1.2-9.1,3.2C0.8,74.5,0,77.9,0,81.5
		l0.6,20.7c0,2.2,1.8,4,4,4s4-1.8,4-4l0.1-9.9c0-0.2,0.2-0.4,0.4-0.4h0.2l9.8,13.3c0.7,0.6,1.6,1,2.6,1
		C23.7,106.3,25.7,104.6,25.7,102.5"/>
	<path class="st0" d="M301.5,71.7h-0.9v-1.1h0.9c0.4,0,0.6,0.1,0.6,0.5C302.1,71.6,301.9,71.7,301.5,71.7 M303.2,71.2
		c0-1.1-0.8-1.4-1.8-1.4h-1.3c-0.5,0-0.5,0.2-0.5,0.5V74c0,0.4,0.1,0.6,0.5,0.6s0.5-0.2,0.5-0.6v-1.4h0.4l0.8,1.4
		c0.2,0.3,0.3,0.6,0.7,0.6c0.4,0,0.6-0.2,0.6-0.4L303,74l-0.8-1.4C302.7,72.4,303.2,72,303.2,71.2"/>
	<path class="st0" d="M301.3,75.4c-1.8,0-3.3-1.5-3.3-3.3s1.5-3.3,3.3-3.3s3.3,1.5,3.3,3.3S303.1,75.4,301.3,75.4 M301.3,67.7
		c-2.4,0-4.4,2-4.4,4.4c0,2.4,2,4.4,4.4,4.4s4.4-2,4.4-4.4C305.7,69.6,303.7,67.7,301.3,67.7"/>
	<g>
		<path class="st0" d="M18.9,131.8c-1.1,0-2-0.4-2.7-1.1c-1-1-1-2.2-1-4.2s0-3.2,1-4.2c0.7-0.7,1.7-1.1,2.7-1.1
			c1.9,0,3.4,1.1,3.7,3.2H21c-0.2-1.1-1-1.8-2.1-1.8c-0.6,0-1.2,0.2-1.5,0.6c-0.5,0.6-0.6,1.2-0.6,3.3s0.1,2.7,0.6,3.3
			c0.4,0.4,0.9,0.6,1.5,0.6c1.2,0,1.9-0.7,2.1-1.8h1.6C22.2,130.7,20.7,131.8,18.9,131.8z"/>
		<path class="st0" d="M32,126.6c0,1.7,0,3-1,4c-0.7,0.7-1.7,1.1-2.8,1.1s-2-0.4-2.7-1.1c-1-1-1-2.4-1-4v-0.7c0-1.7,0.1-2.8,1-3.7
			c0.7-0.7,1.7-1.1,2.7-1.1c1.1,0,2,0.4,2.8,1.1c0.8,0.8,1,2,1,3.5V126.6z M29.8,123.3c-0.4-0.4-1-0.6-1.6-0.6s-1.1,0.2-1.6,0.6
			c-0.6,0.6-0.6,1.6-0.6,3v0.9c0,1.1,0,2.1,0.6,2.6c0.4,0.4,1,0.6,1.6,0.6s1.2-0.2,1.6-0.6c0.6-0.6,0.6-1.6,0.6-3.3
			C30.4,124.8,30.4,123.9,29.8,123.3z"/>
		<path class="st0" d="M39.1,131.7h-4.2v-10.4H39c1.9,0,3.1,1.1,3.1,2.8c0,1.1-0.5,1.8-1.4,2.3c1,0.5,1.6,1.2,1.6,2.4
			C42.2,130.6,41,131.7,39.1,131.7z M38.8,122.7h-2.3v3h2.3c1.1,0,1.7-0.6,1.7-1.5S39.8,122.7,38.8,122.7z M38.9,127.1h-2.5v3.2h2.5
			c1.1,0,1.7-0.6,1.7-1.6S40,127.1,38.9,127.1z"/>
		<path class="st0" d="M45.1,131.7v-10.4h6.7v1.4h-5.1v3H51v1.4h-4.3v3.1h5.1v1.4h-6.7V131.7z"/>
		<path class="st0" d="M58.4,127.6H56v4.1h-1.6v-10.4h4c2,0,3.3,1.3,3.3,3.2S60.3,127.6,58.4,127.6z M58.3,122.7H56v3.5h2.3
			c1.1,0,1.9-0.7,1.9-1.7C60.1,123.4,59.4,122.7,58.3,122.7z"/>
		<path class="st0" d="M64.1,131.7v-10.4h1.6v9h3.5v-9h1.6v9h3.5v-9h1.6v10.4H64.1z"/>
		<path class="st0" d="M79.1,131.7v-10.4h6.7v1.4h-5.1v3H85v1.4h-4.3v3.1h5.1v1.4h-6.7V131.7z"/>
		<path class="st0" d="M94.3,131.7v-4.6h-4.2v4.6h-1.6v-10.4h1.6v4.5h4.2v-4.5h1.6v10.4H94.3z"/>
		<path class="st0" d="M102.4,131.8c-1.1,0-2-0.4-2.7-1.1c-1-1-1-2.2-1-4.2s0-3.2,1-4.2c0.7-0.7,1.7-1.1,2.7-1.1
			c1.9,0,3.4,1.1,3.7,3.2h-1.6c-0.2-1.1-1-1.8-2.1-1.8c-0.6,0-1.2,0.2-1.5,0.6c-0.5,0.6-0.6,1.2-0.6,3.3s0.1,2.7,0.6,3.3
			c0.4,0.4,0.9,0.6,1.5,0.6c1.2,0,1.9-0.7,2.1-1.8h1.6C105.8,130.7,104.3,131.8,102.4,131.8z"/>
		<path class="st0" d="M112.2,122.7v9h-1.6v-9h-2.9v-1.4h7.3v1.4H112.2z"/>
		<path class="st0" d="M121.5,131.7h-4.2v-10.4h4.1c1.9,0,3.1,1.1,3.1,2.8c0,1.1-0.5,1.8-1.4,2.3c1,0.5,1.6,1.2,1.6,2.4
			C124.7,130.6,123.5,131.7,121.5,131.7z M121.3,122.7H119v3h2.3c1.1,0,1.7-0.6,1.7-1.5S122.3,122.7,121.3,122.7z M121.4,127.1h-2.5
			v3.2h2.5c1.1,0,1.7-0.6,1.7-1.6S122.4,127.1,121.4,127.1z"/>
		<path class="st0" d="M134.7,126.6c0,1.7,0,3-1,4c-0.7,0.7-1.7,1.1-2.8,1.1s-2-0.4-2.7-1.1c-1-1-1-2.4-1-4v-0.7
			c0-1.7,0.1-2.8,1-3.7c0.7-0.7,1.7-1.1,2.7-1.1c1.1,0,2,0.4,2.8,1.1c0.8,0.8,1,2,1,3.5V126.6z M132.5,123.3c-0.4-0.4-1-0.6-1.6-0.6
			s-1.1,0.2-1.6,0.6c-0.6,0.6-0.6,1.6-0.6,3v0.9c0,1.1,0,2.1,0.6,2.6c0.4,0.4,1,0.6,1.6,0.6s1.2-0.2,1.6-0.6
			c0.6-0.6,0.6-1.6,0.6-3.3C133.1,124.8,133,123.9,132.5,123.3z"/>
		<path class="st0" d="M145.7,131.7h-4.2v-10.4h4.1c1.9,0,3.1,1.1,3.1,2.8c0,1.1-0.5,1.8-1.4,2.3c1,0.5,1.6,1.2,1.6,2.4
			C148.9,130.6,147.7,131.7,145.7,131.7z M145.4,122.7h-2.3v3h2.3c1.1,0,1.7-0.6,1.7-1.5S146.5,122.7,145.4,122.7z M145.6,127.1
			h-2.5v3.2h2.5c1.1,0,1.7-0.6,1.7-1.6C147.3,127.7,146.6,127.1,145.6,127.1z"/>
		<path class="st0" d="M155.8,131.7v-10.4h1.6v5l3.9-5h1.9l-4,4.9l4.4,5.5h-2l-4.2-5.4v5.4H155.8z"/>
		<path class="st0" d="M171.4,131.7l-0.7-2.1h-4.1l-0.7,2.1h-1.7l3.8-10.4h1.3l3.8,10.4H171.4z M168.6,123.6l-1.6,4.6h3.2
			L168.6,123.6z"/>
		<path class="st0" d="M173.6,131.7l4.3-5.5l-3.9-4.9h1.9l3.7,5v-5h1.6v5l3.7-5h1.9l-3.9,4.9l4.2,5.5h-2l-4-5.4v5.4h-1.6v-5.4
			l-4,5.4H173.6z"/>
		<path class="st0" d="M196.2,121.3v9h1.2v3.8h-1.6v-2.3h-6.3v2.3H188v-3.8h0.9c0.9-1.4,1.3-3.5,1.3-5.9v-3.1H196.2z M191.7,125
			c0,2-0.2,3.8-1,5.3h3.9v-7.6h-2.9V125z"/>
		<path class="st0" d="M206.9,126.6c0,1.7,0,3-1,4c-0.7,0.7-1.7,1.1-2.8,1.1s-2-0.4-2.7-1.1c-1-1-1-2.4-1-4v-0.7
			c0-1.7,0.1-2.8,1-3.7c0.7-0.7,1.7-1.1,2.7-1.1c1.1,0,2,0.4,2.8,1.1c0.8,0.8,1,2,1,3.5V126.6z M204.7,123.3c-0.4-0.4-1-0.6-1.6-0.6
			s-1.1,0.2-1.6,0.6c-0.6,0.6-0.6,1.6-0.6,3v0.9c0,1.1,0,2.1,0.6,2.6c0.4,0.4,1,0.6,1.6,0.6s1.2-0.2,1.6-0.6
			c0.6-0.6,0.6-1.6,0.6-3.3S205.3,123.9,204.7,123.3z"/>
		<path class="st0" d="M215.8,131.7v-7.6l-4.7,7.6h-1.4v-10.4h1.6v7.6l4.7-7.6h1.5v10.4H215.8z M213.6,120.7c-1.2,0-2.2-0.5-2.3-2
			h1.2c0.1,0.7,0.5,1,1.1,1s1-0.3,1.1-1h1.2C215.8,120.2,214.8,120.7,213.6,120.7z"/>
		<path class="st0" d="M231.8,121.3v9h1.2v3.8h-1.6v-2.3h-6.3v2.3h-1.5v-3.8h0.9c0.9-1.4,1.3-3.5,1.3-5.9v-3.1H231.8z M227.3,125
			c0,2-0.2,3.8-1,5.3h3.9v-7.6h-2.9V125z"/>
		<path class="st0" d="M235.4,131.7v-10.4h6.7v1.4H237v3h4.3v1.4H237v3.1h5.1v1.4h-6.7V131.7z"/>
		<path class="st0" d="M248.3,122.7v9h-1.6v-9h-2.9v-1.4h7.3v1.4H248.3z"/>
		<path class="st0" d="M258.6,131.7l-0.7-2.1h-4.2l-0.7,2.1h-1.7l3.8-10.4h1.3l3.8,10.4H258.6z M255.8,123.6l-1.6,4.6h3.2
			L255.8,123.6z"/>
		<path class="st0" d="M267.9,131.7v-9h-3v3.3c0,4.4-1.1,5.7-3.1,5.7h-0.7v-1.4h0.3c1.2,0,2-0.7,2-4.5v-4.5h6.1v10.4H267.9z"/>
		<path class="st0" d="M278.8,131.7v-7.6l-4.7,7.6h-1.4v-10.4h1.6v7.6l4.7-7.6h1.5v10.4H278.8z"/>
	</g>
</g>
</svg>
