<?xml version="1.0" encoding="utf-8"?>
<!-- Generator: Adobe Illustrator 21.1.0, SVG Export Plug-In . SVG Version: 6.00 Build 0)  -->
<svg version="1.1" id="Слой_1" xmlns="http://www.w3.org/2000/svg" xmlns:xlink="http://www.w3.org/1999/xlink" x="0px" y="0px"
	 viewBox="0 0 142.6 136" style="enable-background:new 0 0 142.6 136;" xml:space="preserve">
<style type="text/css">
	.st0{fill:#FFFFFF;}
</style>
<title>love</title>
<path class="st0" d="M134.1,16.9c-4.7-7-10.9-12-17.7-14.7c-8.8-3.4-19.2-2.8-28.5,1.6C81,7.1,75,11.9,70.3,17.8
	C65.6,10.5,58.7,5,50.6,2.2c-7.7-2.6-16.1-2.7-23.8-0.3C13.5,6,6.2,20.8,4.2,25.2c-4.4,10-5.4,21.2-2.7,31.9
	c2.6,9.7,8.2,19.2,17.7,29.7c8.1,9,17.3,17,26.2,24.8c7.9,6.9,16,14,23.3,21.7l0.5,0.5l0.9,0.9l1.2,1.3l1.2-1.3l0.9-0.9l0.5-0.5
	c7.3-7.7,15.5-14.9,23.4-21.8C106,103.9,115,96,123,87.3c2.9-3.2,5.6-6.5,8.2-10c2.2-3,4.1-6.2,5.8-9.5c1.6-3.1,2.9-6.4,3.8-9.8
	C144.7,44,142.2,28.9,134.1,16.9z M134.1,56.1c-0.8,2.9-1.9,5.8-3.3,8.5c-3.5,6.6-7.8,12.6-12.9,18c-7.8,8.4-16.6,16.1-25.2,23.6
	c-7.2,6.3-14.6,12.7-21.4,19.6c-6.8-6.9-14.1-13.3-21.2-19.5c-8.8-7.6-17.8-15.5-25.7-24.2c-8.8-9.7-13.9-18.2-16.2-26.8
	C6,46.2,6.8,36.6,10.6,28c3.4-7.7,9.9-16.9,18.2-19.5c3-1,6.2-1.4,9.4-1.4c3.4,0,6.8,0.6,10,1.7c8.2,2.9,14.8,9,18.2,16.9l2.5,5.8
	l3.6-5.2c5.1-7.4,11.4-13,18.2-16.2c7.7-3.6,16.1-4.1,23.1-1.4s11.7,8,14.4,12.1C135.3,31.2,137.4,44.1,134.1,56.1L134.1,56.1z"/>
<path class="st0" d="M45.1,18c-3.3,0-6.5,0.4-9.7,1.3C24.1,22.5,17,33.3,17,47.4c0,1.7,1.3,3,3,3s3-1.3,3-3c0-4.3,1-18.6,14.1-22.4
	c2.6-0.7,5.3-1,7.9-1h0.1c1.7,0,3-1.3,3-3S46.8,18,45.1,18L45.1,18z"/>
</svg>
