<svg id="Слой_1" data-name="Слой 1" xmlns="http://www.w3.org/2000/svg" viewBox="0 0 138.5 128.7"><defs><style>.cls-1{fill:#fff;}</style></defs><title>селектор</title><path class="cls-1" d="M27.25,117.41H.25v-32h27Zm-23-4h19v-24h-19Z" transform="translate(-0.25 -0.16)"/><rect class="cls-1" x="9.15" y="93.45" width="9.04" height="6.1" rx="2.48" ry="2.48"/><rect class="cls-1" x="9.15" y="93.45" width="9.04" height="6.1" rx="3" ry="3"/><rect class="cls-1" x="9.15" y="102.45" width="9.04" height="6.1" rx="3" ry="3"/><path class="cls-1" d="M13.92,87.91a2.5,2.5,0,0,1-2.5-2.5V2.66a2.5,2.5,0,0,1,5,0V85.41A2.5,2.5,0,0,1,13.92,87.91Z" transform="translate(-0.25 -0.16)"/><path class="cls-1" d="M13.92,126.16a2.5,2.5,0,0,1-2.5-2.5v-6.25a2.5,2.5,0,0,1,5,0v6.25A2.5,2.5,0,0,1,13.92,126.16Z" transform="translate(-0.25 -0.16)"/><path class="cls-1" d="M138.75,42.41h-27V11.16h27Zm-23-3.91h19V15.07h-19Z" transform="translate(-0.25 -0.16)"/><rect class="cls-1" x="120.65" y="18.45" width="9.04" height="6.1" rx="2.48" ry="2.48"/><rect class="cls-1" x="120.65" y="18.45" width="9.04" height="6.1" rx="3" ry="3"/><rect class="cls-1" x="120.65" y="27.45" width="9.04" height="6.1" rx="3" ry="3"/><path class="cls-1" d="M125.42,12.91a2.5,2.5,0,0,1-2.5-2.5V2.66a2.5,2.5,0,0,1,5,0v7.75A2.5,2.5,0,0,1,125.42,12.91Z" transform="translate(-0.25 -0.16)"/><path class="cls-1" d="M125.42,128.86a2.5,2.5,0,0,1-2.5-2.5v-84a2.5,2.5,0,0,1,5,0v84A2.5,2.5,0,0,1,125.42,128.86Z" transform="translate(-0.25 -0.16)"/><path class="cls-1" d="M101.75,70.91h-27v-32h27Zm-23-4h19v-24h-19Z" transform="translate(-0.25 -0.16)"/><rect class="cls-1" x="83.65" y="46.95" width="9.04" height="6.1" rx="2.48" ry="2.48"/><rect class="cls-1" x="83.65" y="46.95" width="9.04" height="6.1" rx="3" ry="3"/><rect class="cls-1" x="83.65" y="55.95" width="9.04" height="6.1" rx="3" ry="3"/><path class="cls-1" d="M88.42,41.41a2.5,2.5,0,0,1-2.5-2.5V2.66a2.5,2.5,0,0,1,5,0V38.91A2.5,2.5,0,0,1,88.42,41.41Z" transform="translate(-0.25 -0.16)"/><path class="cls-1" d="M88.42,128.86a2.5,2.5,0,0,1-2.5-2.5V70.91a2.5,2.5,0,0,1,5,0v55.45A2.5,2.5,0,0,1,88.42,128.86Z" transform="translate(-0.25 -0.16)"/><path class="cls-1" d="M64.25,94.61h-27v-32h27Zm-23-4h19v-24h-19Z" transform="translate(-0.25 -0.16)"/><rect class="cls-1" x="46.15" y="70.65" width="9.04" height="6.1" rx="2.48" ry="2.48"/><rect class="cls-1" x="46.15" y="70.65" width="9.04" height="6.1" rx="3" ry="3"/><rect class="cls-1" x="46.15" y="79.65" width="9.04" height="6.1" rx="3" ry="3"/><path class="cls-1" d="M50.92,65.11a2.5,2.5,0,0,1-2.5-2.5V3.86a2.5,2.5,0,0,1,5,0V62.61A2.5,2.5,0,0,1,50.92,65.11Z" transform="translate(-0.25 -0.16)"/><path class="cls-1" d="M50.92,128.86a2.5,2.5,0,0,1-2.5-2.5V94.61a2.5,2.5,0,0,1,5,0v31.75A2.5,2.5,0,0,1,50.92,128.86Z" transform="translate(-0.25 -0.16)"/></svg>