<?xml version="1.0" encoding="utf-8"?>
<!-- Generator: Adobe Illustrator 21.1.0, SVG Export Plug-In . SVG Version: 6.00 Build 0)  -->
<svg version="1.1" xmlns="http://www.w3.org/2000/svg" xmlns:xlink="http://www.w3.org/1999/xlink" x="0px" y="0px"
	 viewBox="0 0 204 1236" style="enable-background:new 0 0 204 1236;" xml:space="preserve">
<style type="text/css">
	.st0{fill:none;stroke:#DE0023;stroke-width:3;stroke-miterlimit:10;stroke-dasharray:6;}
	.st1{fill:#9A8681;}
	.st2{fill-rule:evenodd;clip-rule:evenodd;fill:#9A8681;}
	.st3{fill:#DE0023;}
	.st4{fill:#FFFFFF;}
	.st5{opacity:0.3;fill:#9A8681;}
	.st6{opacity:0.8;fill:#9A8681;}
	.st7{fill:none;stroke:#9A8681;stroke-miterlimit:10;}
	.st8{fill:none;stroke:#9A8681;stroke-width:0.5;stroke-miterlimit:10;}
	.st9{fill:none;stroke:#9A8681;stroke-width:0.25;stroke-miterlimit:10;}
	.st10{opacity:0.5;fill:#9A8681;}
	.st11{font-family:'FSElliotPro-Heavy';}
	.st12{font-size:12px;}
	.st13{font-size:18.1024px;}
	.st14{opacity:0.31;fill:#9A8681;}
	.st15{opacity:0.3;fill:#FFFFFF;stroke:#998675;stroke-width:0.25;stroke-miterlimit:10;}
	.st16{font-family:'FSElliotPro';}
	.st17{font-size:17.7928px;}
</style>
<g id="Слой_1">
	<line class="st0" x1="184.2" y1="51" x2="184.2" y2="1216"/>
	<g>
		<path class="st1" d="M110.2,25.6c-1.4,0.3-8.6,0.5-11,0.7c-2.3,0.3-4.2-0.2-6.5,0.2c-2.4,0.4-2.9,0.9-3.4,0.8
			c-0.5-0.1-2.2-2.4-2.6-2.7c-0.4-0.3-1.9-0.4-1.5,1.2c0.4,1.6,1.6,3.2,0.9,4.4c-0.7,1.2-3,5.2-3.2,6.1s0,4-0.4,5.2
			c-0.4,1.3-1.8,4.6-2.8,6.4c-0.9,1.8-1.6,3.1-2.5,3.5c-0.9,0.5-0.9,0.8-1,1c-0.1,0.2,0,0.6-0.2,0.7c-0.1,0.1-1.3,1.1-1.6,1.6
			c-0.4,0.4-0.2,1-0.3,1.2c-0.2,0.2-0.4,0.6-0.2,1.3S74,59,74,60c0,1.1-0.4,4.1-0.5,4.6c-0.1,0.5-0.1,1.2-0.3,1.7
			c-0.2,0.4-0.1,1,0.1,1.4c0.2,0.4,0.4,0.5,0.4,0.7c0,0.2,0.2,0.8,0.8,0.9s0.9-0.2,0.9-0.2s0.2,0.3,1.3,0.2c1.1-0.1,1.7-1.3,1.2-2.2
			c-0.6-0.9-1.1-0.9-1.4-1.5s-0.4-1.8-0.3-2.2s0.1-0.8,0.2-0.8c0.1,0,0,1.4,0.4,1.8c0.4,0.4,0.8,0.6,1.2,0.7c0.4,0,0.8-0.3,0.9-0.3
			c0.1,0,0.8,0.3,1.3-0.1c0.5-0.4,0.4-1.9-0.2-2.2c-0.7-0.3-1.1-0.3-1.3-0.4c-0.2-0.2-0.3-1.6-0.3-2.3c0-0.7-0.1-1.3,0.3-1.8
			c0.3-0.6,0.3-1,0.4-1.2c0.1-0.2,0-0.5,0.2-0.8c0.2-0.3,0.8-1.1,2-2.1c1.2-1,2.3-2.1,3.4-3c1.1-0.9,3.7-2.7,4.7-3.9
			c1-1.3,2.3-3.9,4.1-5.1c1.8-1.2,3.4-1.9,4.6-1.9s6.2,1.3,10.4,2.5c4.2,1.2,7.5,2.7,8.9,2.9c1.4,0.1,1.8,0,2,0.1
			c0.2,0.1-0.1,0.7,0.2,1.1c0.3,0.4,1.1,2.9,1.1,5c-0.1,2.1,0.1,4.2,0.1,5.3c0,1.1,0,2.7-0.1,3.7c-0.1,1-0.3,2,0,2.3
			c0.3,0.3,0.7-0.2,0.9,0c0.2,0.2,0.9,2,1.1,3.6c0.3,1.6,0.6,2.5,1.8,2.5c1.2,0,1.5-0.2,1.5-0.2s0.5,0.3,1.4,0.1
			c0.9-0.2,0.8-1.1,0.7-1.4c0-0.3-0.1-0.8-0.1-0.8s0.3,0.1,0.6-0.2c0.3-0.3-0.1-1.3-0.4-1.6s-0.2-0.6-1-0.7c-0.8,0-0.9-0.1-1.3-0.7
			c-0.4-0.6-0.9-2.7-1-3.3s0.3-1.8,0.4-2.7c0-0.9,0.1-2.5,0.1-4c0-1.5,0.3-3,0.5-5.2c0.2-2.2,0.9-5.6,1.5-6.4
			c0.6-0.9,1.6-1.6,1.9-2.6c0.3-1,0.8-2.9,0.8-4.9c0-2-0.3-3.8-0.1-4.8c0.2-1,1.2-3.6,1.8-5.3c0.6-1.7,1.6-4.6,1.8-4.8
			c0.3-0.2,1.1,0.2,1.7,0.3c0.6,0.1,1,0.1,1.8,0.4s1.8,0.3,2.6,0.4s1.5,0.4,2.5,0.1s1.4-0.7,1.9-1c0.5-0.3,1.2-1,1.4-1.3
			c0.3-0.4,0.4-0.6-0.3-1c-0.7-0.4-1.8-1.3-2.6-1.7c-0.8-0.4-1.8-0.9-2.1-1.4s-0.4-1-0.6-1.4c-0.2-0.4-1.2-1.2-1.8-1.6
			s-1.6-1.4-2-1.7s-0.9-0.5-1-0.8c-0.1-0.3-0.3-2-0.4-2.8c-0.1-0.8-0.3-2.2-0.6-2.2c-0.2,0-0.9,1.8-1.7,2.8c-0.8,1-1.7,1.9-1.9,2.5
			c-0.2,0.6-1,1.3-1.6,2c-0.6,0.6-2.9,3-4,4.8c-1.1,1.8-3.5,5.9-4.4,6.4s-5.8,2-7.1,2.5S111.6,25.4,110.2,25.6z"/>
		<path class="st1" d="M4.4,36.9c-0.3,0-1.1,0-1.3-0.1c-0.7-0.1-1.7-0.7-2.1,0.2c-0.6,1.4,2.4,1.6,3.4,1.9c2.9,0.7,4.4,2.5,5.7,4.6
			c2.1,3.2,5.3,5,9.5,6.2c-0.8,2.9,0.8,6.7-1.2,8.3c-0.4,0.3-0.9,0.4-1.1,0.8c-0.1,0.3,0,0.9-0.1,1.5c-0.2,2.5-1.5,5.6,0.2,7.3
			c0.5,0.2,1.7,0.8,2.3,0.1c0.8-0.9-0.5-2.3-0.6-2.9c-0.1-0.7,0.2-1.4,0.5-2.2c0.2-0.6,0.4-1.5,0.8-1.9c0.8-0.6,2.5-0.6,3.6-0.8
			c1.4-0.3,2.2-0.7,3.2-1.2c0,0.4-0.5,0.9-0.5,1.4c0,0.3,0.5,0.8,0.6,1.2c0.9,1.8,1.4,4.9,2.7,5.9c0.9,0.5,2.3,0.8,2.4-0.5
			c0.1-1-1.2-1.7-1.7-2.6c-0.3-0.6-0.8-3.4-0.6-4.1c0.3-1.3,1.5-1.8,2.3-2.6c2.5,0,4.3,0.6,6.2,1.2c0.3,1.6,0.4,3.2,0.8,5
			c0.5,2,1.1,4.3,3,4.6c0.4,0.1,1.6,0,1.9-0.1c1.6-0.6-0.1-2.7-1.6-2.4c-0.7-1.7-0.6-4.3-0.6-6.5c0.6,0,0.8,0.5,1.4,0.6
			c1.2,1.8,3.2,3,4.9,4.1c1.2,0.8,2.7,1.2,3.3,2.4c1,0.3,1.2,1.5,1.9,2c0.7,0.2,1.7,0.6,2.2,0c0.2-0.2,0.2-1.1,0.1-1.5
			c-0.2-0.6-1.1-1.4-1.7-2.1c-1.3-1.4-2.6-2.4-3.9-3.7c-0.6-0.6-1.6-1.3-1.9-1.9c-0.3-0.7,0.1-1.7-0.1-2.3c1-0.8,1.3-1.9,2.1-2.8
			c1.1-1.1,2.6-1.6,4.4-1.8c0.4,0,0.8-0.1,1.2-0.1h0c0.1,0,0.1,0,0.2,0c0.2,0,0.3,0,0.5,0c1.5,0,2.2,0.3,2.2,0.3
			c0.3,0,0.5-0.1,0.6-0.1c0,0,0,0,0,0c0,0,0,0,0,0c0,0,0,0,0,0c0,0,0,0,0,0c0,0,0,0,0,0c0,0,0,0,0,0c0,0,0,0,0,0
			c0.3-0.3,0.6-0.8,0.8-0.5c0,0.1,0.2-0.3,0.3-0.2c-0.2,0.3,0.2,0,0,0.3c0.2,0.1,0.1-0.3,0.1-0.6c0.1,0,0.3,0.2,0.3,0.1
			c-0.4-0.3,0.2-0.7,0.2-1.2c0-0.4-0.6-1-0.8-1.7c-0.1-0.5,0-1.5-0.1-1.5c-0.3,0.1-0.3-0.9-0.3-0.7c0,0.1,0,0.2-0.1,0.2
			c-0.2-0.9-1.4-1.1-1.5-1.9c-0.1-0.7,0.8-1.4,0.6-2.2c-0.6,0.1-1,0.7-1.4,0.7c-0.1-0.6,0-1.3-0.4-1.5c-1.2,0.1-1.7,1.7-2.8,2.1
			c-0.5,0.2-1.1,0.2-1.7,0.5c-0.5,0.2-1.1,0.3-1.7,0.5c-1.2,0.2-2.6,0.5-3.7,0.6c-1.1,0.1-2.5,0-3.4,0.1c-2.5,0.2-4-0.5-6-0.8
			c-1.4-0.2-2.8-0.5-4.2-0.5c-4-0.2-7.7,0.3-10.5,1.4c-0.7,0.3-1.4,0.7-2.1,1c-2.5,0.9-5.4-0.4-7-1.4c-1.2-0.8-2-1.9-2.8-3
			C10,39.4,7.6,37.4,4.4,36.9z"/>
	</g>
	<g>
		<path class="st2" d="M50.3,224.3c0,0.2-0.1,2.6-0.1,2.6c-0.1,0.5-0.2,1-0.3,1.5c0,0-0.3,1.2-0.2,1.6c0.1,0.3-0.1,1.4,0,1.8
			c0.4,1.3,0.1,1.4-0.7,2.2c0,0-0.5,0.6-0.5,0.7c0,0.1-0.3,0.4-0.5,0.6c-0.2,0.2-0.8,0.4-0.8,0.4c-0.3,0-0.6,0.1-0.8,0.1
			c-0.2,0-0.3-0.3-0.5-0.3c-0.2,0-0.4,0.1-0.6,0.1c-0.2,0-0.4,0.1-0.6,0c-0.2-0.1-0.2-0.4-0.4-0.4c-0.2-0.1-0.3,0-0.5,0.1
			c0,0-0.2-0.5-0.1-0.5c0.1,0,0.2-0.5,0.2-0.5c0.1-0.2,0.2-0.3,0.2-0.5c0.1-0.2,0.1-0.4,0.2-0.5c0.1-0.5,0.4-0.6,0.8-0.9
			c0,0,0.6-0.4,0.6-0.4c0.2-0.2,0.3-0.4,0.5-0.6c0.1-0.1,0.1-0.3,0.1-0.4c0.1-0.7,0.2-1.1,0.1-1.8c0-0.2-0.1-0.5-0.2-0.7
			c0-0.2-0.1-0.5-0.1-0.7c0-0.3,0-0.6,0.1-0.9c0-0.3,0-0.7,0-1c0-0.6,0.1-1.1,0-1.7c0-0.4,0-0.8-0.1-1.2c-0.1-0.4-0.3-0.7-0.4-1.1
			c-0.1-0.4-0.1-0.9-0.1-1.4c0-0.3,0-0.6,0-0.9c0-0.5,0.1-0.9,0.1-1.4c0-0.3-0.2-0.5-0.3-0.8c-0.2-0.4-0.6-0.8-0.8-1.2
			c-0.3-0.6-0.6-1.2-0.7-1.9c-0.3-1.6,0.5-5.7,1-7.2c0.2-0.6,0.5-1.1,0.7-1.7c0.2-0.4,0.4-0.9,0.4-1.3c0-0.2-0.2-0.4-0.2-0.6
			c-0.1-0.3-0.3-0.5-0.4-0.8c-0.1-0.4-0.1-0.8-0.1-1.2c0-0.2,0-0.7-0.1-0.6c-0.2,0.2-0.1,0.6-0.1,0.8c0,0,0.1,1,0.1,1.1
			c0,0.1-0.2,0.9-0.2,0.9s-0.2,0.5-0.2,0.5c0,0.1-0.3,0.5-0.3,0.5c-0.1,0-0.2-0.1-0.3-0.1c0,0-0.2-0.2-0.2-0.4
			c0-0.2-0.1-0.5-0.1-0.5c0-0.1-0.3-0.3-0.4-0.4c-0.1-0.1-0.7-0.4-0.7-0.4c-0.1-0.1-0.8-0.6-0.8-0.6c-1.2-1.4-1.4-3.4,0.5-4.3
			c0,0,1.8-1.6,2.1-1.9c0.1-0.1,0.2-0.6,0.6-0.6c0.4,0,0.4,0,0.5,0.1c0.1,0,0.3-0.2,0.4-0.2c0.1,0,2.9-2.4,5.3-2.1
			c2.1,0.3,3.5,1.6,5,3c1.3,0.3,0.4,0.1,1,0.8c0.3,0.4,0.7,0.8,1.1,1.3c0.9,1,2.7,2.3,2.1,3.8c-0.4,0.9-1.4,1.4-2.2,1.9
			c-0.7,0.4-0.6,0.3-0.6,1c0,0.4,0,0.9,0.5,1.1c0.4,0.2,0.9,0.7,0.9,0.7c4.1,2.7,7.6,6.8,9.9,11.1c1,1.8,1.9,3.6,2.2,4.5
			c0.5,1.3,0.9,2.6,0.5,3.6c-0.2,0.6-0.5,0.8-0.5,1.4c0,0.6,0.5,1.5,0.5,1.5c0.3,0.3,0.6,0.5,0.8,0.8c0.3,0.3,0.2,0.5,0.4,0.7
			c0.2,0.2,0.6,0.4,0.8,0.6c0,0,0.1,0.1,0.1,0.3c0.2,0.3,0.3,0.6,0.3,0.9c0.1,0.4-0.1,0.7-0.2,0.9c-0.9,1.1-4.5,2.4-6,2.5
			c-0.6,0.4-0.5,0.5-1.2,0.3c-0.2,0.1-0.3,0.2-0.5,0.3c0,0-0.4,0.3-0.6,0.2c-0.2-0.2-0.4-0.2-0.4-0.2s-0.5,0.4-0.6,0.3
			c0-0.1-0.4-0.3-0.4-0.4c0-0.1-0.1-0.5-0.1-0.5c-0.1,0-0.3,0.1-0.4,0.1c0,0-0.5,0-0.5-0.1c0-0.1,0-0.8,0-0.9c0-0.2,0.4-0.8,0.5-1
			c0.1-0.2,0.2-0.8,0.5-1c0.3-0.2,1-0.5,1-0.5c0.1-0.1,0.3-0.2,0.2-0.3c-0.2-0.1-0.5-0.1-0.7-0.1c-1.2,0-1.4,0.1-2.6-0.3
			c-0.9-0.3-2.3-0.5-3.2-0.9c0,0-0.2,0.8-0.2,1.1c0,0.3-0.3,1.5-0.4,1.8c0,0.3-0.2,1.5-0.2,1.5c0,0.4,0,0.9-0.1,1.3
			c-0.1,0.3-0.3,0.6-0.4,0.9c-0.1,0.2-0.1,0.4-0.2,0.6c-0.2,0.5-0.5,1-1.1,0.9c-0.1,0-0.6-0.3-0.6-0.3s-0.7,0.5-0.8,0.5
			c-1,0.4-1-0.2-1.3-0.3c-0.2-0.1-0.8,0.2-1.1-0.2c-0.1-0.1,0-0.4-0.2-0.5c-0.1-0.1-0.7,0.2-0.6-0.5c0-0.2,0.3-1.1,0.3-1.1
			c0.5-0.8,0.2-0.6,1-1c0.5-0.3,0.8-0.8,0.9-1.4c0.1-0.3,0.2-0.7,0.2-1.1c0-0.5-0.2-1.1-0.2-1.6c0-0.4,0.1-0.7,0.2-1.1
			c0.1-0.4,0.2-0.9,0.3-1.3c0-0.2,0-0.5-0.1-0.6c-0.1-0.2-0.4-0.4-0.6-0.6c-0.2-0.2-0.5-0.4-0.7-0.7c-0.2-0.2-0.4-0.5-0.6-0.8
			c-0.3-0.3-0.7-0.6-0.9-1c-0.1-0.2-0.2-0.4-0.3-0.6c-0.2-0.2-0.4-0.4-0.6-0.7C50.5,223.6,50.2,224.2,50.3,224.3L50.3,224.3z
			 M55.7,203.8c0.1,0.2,0.2,0.4,0.4,0.5c0.1,0.1,0.3,0.2,0.5,0.3c0-0.5,0-1.3,0-1.8c0-0.2,0-0.9,0-1.1c0-0.2,0-1.1,0-1.1
			c-0.1-0.2,0-0.4-0.2-0.6c-0.1-0.1-0.1,0.2-0.1,0.3c0,0-0.2,1-0.2,1.2c0,0.2-0.2,0.7-0.2,0.7c-0.1,0.3-0.2,0.6-0.3,0.9
			C55.7,203.3,55.7,203.5,55.7,203.8z"/>
		<path class="st2" d="M115,157.8c-0.1,1-0.3,1.6-0.3,2.2c0,3.5,0,3.6-1.8,6.9c-1.2,2.3-1.7,3.1-1.8,4.2c-0.1,2.3,1,4.8,1.6,7
			c0.1,0.3,0.5,1.5,0.7,1.8c0.7,1.2,2.2,1.9,3.3,4c3.7,7.4,8,14.6,11.7,21.9c4.6-0.9,6.2,10.1,5.3,13.1c-0.1,0.4-0.2,0.8-0.2,1.2
			c0.2,2.8-0.6,5.8-0.6,8.7c0,0.5-0.6,1.8-1.5,2.1c-1.4,0.6-1.7-1.3-3.4,0.3c-0.8,0.8-0.8,1.5-1.6,2.8c-0.7,1.1-1.7,2-3.3,2
			c-1.6,0-2.9-1-2.9-1.6c0-0.4,0.1-0.7,0.1-1c0.2-1.5,0.7-1.4,1.1-2.3c0.2-0.5-0.1-0.6-0.6-0.6c-1.2,0-1.7,0-2,0.3
			c-0.3,0.2-0.3,0.7-0.5,1.6c-0.1,0.6-0.4,1.7,0,2.2c0.4,0.6,0.6,2.6,0.5,3.3c-0.1,0.7-0.3,1.4-0.8,1.7c-0.3,0.2-0.6,0.3-0.8,0.3
			c-0.4,0-0.9-0.1-1.2,0c-0.6,0.1-1,0.4-1.5,0.3c-0.5-0.1-0.7-0.3-1.5-0.2c-0.3,0-0.6,0.1-0.9,0.2c-0.5,0.1-0.9,0.1-1.2,0
			c-0.4-0.1-0.7-0.3-0.8-1.1c0-0.2-0.1-0.4-0.1-0.7c0-0.2,0.1-0.5,0.3-0.7c0.1-0.1,0.8-0.7,0.8-0.7c0.6-0.7,1.1-1.2,1.5-2.1
			c0.4-1.1,0.6-1.7,0.6-2.9c0-0.5,0-1-0.1-1.7c-0.1-0.5-0.3-0.7-0.5-0.7c-0.2,0-0.6,0.1-1.1,0.3c-0.8,0.3-1.8,0.8-2.3,1
			c-1.2,0.4-1.8,0.4-3.1,0.9c-1.3,0.6-3.2,1.3-4.6,1c-0.3,0-0.6-0.1-1.1-0.3c0,0-0.4,0.2-0.5-0.1c-0.6-0.9-0.3-1.7,0.4-2.6
			c0.3-0.4,1.1-0.9,1.8-1.2c1.3-0.6,2.3-0.8,3.3-1c0.8-0.2,1.5-0.3,2.3-0.7c0.7-0.3,0.3-1.8-0.1-2.5c-1.2-2-2.5-4.2-3.7-6.1
			c-0.5-0.8-0.5-1.2-1-1.2c-0.2,0-0.4,0.1-0.6,0.2c-0.4,0.2-0.7,0.5-0.8,0.9c-0.4,1.5-0.8,3.1-1,4.6c-0.3,1.6-0.3,3.1-0.9,4.6
			c-0.2,0.5-0.4,0.9-0.4,1.2c0,0.9,0,1.8,0,2.7c0,0,0.2,0.5-0.1,0.9c-0.4,0.4-0.8,0.7-0.8,0.7c-0.5,0.7-0.7,1.8-1.4,2.5
			c-0.3,0.3-0.6,0.4-1.4,0.9c-0.2,0.5-0.6,0.8-1.1,1c-0.6,0.2-1.1,0.2-1.7-0.1c-0.6-0.2-0.9,0.2-1.7,0.3c-0.7,0.1-1.2,0.1-1.8-0.4
			c-0.2-0.1-0.3-0.2-0.4-0.2c-0.2,0-1,0-1-0.4c0-0.8-0.2-0.9,0.2-1.6c-0.2-0.9,0-0.9,0.7-1.2c1.3-0.7,4-1.6,4.7-2.8
			c0.7-1.2,1.4-2.1,1.8-3.5c0.5-1.7,0.2-2.8,0.3-4.5c0.2-2.9,1.6-6.2,0.8-9.4c-0.7-2.9-0.1-6.8-1.1-9.1c-1.2-2.8-1.2-3.8-1.6-6.9
			c-0.3-2.6-0.5-5.1-0.1-8.1c0.4-3.2,0.2-5.7-0.2-8.8c-0.2-1.9-1.4-0.9-3.4-1.1c-1.1-0.1-2.3-0.3-2.6-0.9c-0.1-0.1-0.3-0.4-0.3-0.5
			c-0.1-0.3-0.6-0.2-0.6-1c0-0.3,0.1-0.6,0.3-0.8c0.1-0.2,0.3-0.3,0.6-0.5c0.5-0.3,2.1-0.8,2.2-1.1c0.1-0.1,0-0.1-0.1-0.2
			c-1.3-0.6-2.8-0.8-3.4-2.3c-0.3-0.8-0.4-0.8-0.6-1.6c-0.1-0.1-0.2-0.2-0.3-0.3c-0.4-0.3-0.4-0.6-0.3-1c0.1-0.2,0.3-0.5,0.6-0.6
			c0.4-0.2,0.9-0.4,1.1-0.4c0.7-0.2,1.3-0.4,1.9-0.7c1.1-0.5,1.9-0.5,3.1-0.7c0.8-0.4,2.5-0.9,2.7-1.8c0.2-0.8,0.2-0.8,1-1
			c0,0,0.1-0.3,0.2-0.4c0.2-0.6,0.5-0.7,1-0.9c1-0.5,1.8-0.9,2.7-1.5c1.1-0.8,1.7-2.8,2.2-4.1c0.3-0.6,1-1.8,1.7-2.9
			c0.6-0.9,1.2-1.8,1.7-2.1c0.2-0.1,0.5-0.3,0.8-0.2c0.7,0.3,0.6,1.9,0.6,2.5c-0.1,2.2-0.3,4.5-0.1,6.6c0.1,0.8,0.5,0.6,1,0.3
			c0.9-0.5,3.2-3.2,4.3-4.1c0.4-0.3,0.8-0.6,1.1-0.8c0.6-0.4,0.9-0.6,1.3-0.7c0.4-0.1,0.6-0.1,0.8-0.1
			C115.3,156,115.1,157.1,115,157.8z"/>
	</g>
	<g>
		<g>
			<path class="st3" d="M184.2,71.1c-9.4,0-17-7.6-17-17s7.6-17,17-17s17,7.6,17,17S193.6,71.1,184.2,71.1z"/>
			<path class="st4" d="M184.2,39.1c8.3,0,15,6.7,15,15s-6.7,15-15,15c-8.3,0-15-6.7-15-15S175.9,39.1,184.2,39.1 M184.2,35.1
				c-10.5,0-19,8.5-19,19s8.5,19,19,19s19-8.5,19-19S194.7,35.1,184.2,35.1L184.2,35.1z"/>
		</g>
		<g>
			<path class="st4" d="M180.9,50.4l3.9-2.2h2.6V60h-3.1v-8.8l-2.4,1.3L180.9,50.4z"/>
		</g>
	</g>
	<g>
		<g>
			<path class="st3" d="M184.2,235.4c-9.4,0-17-7.6-17-17s7.6-17,17-17s17,7.6,17,17S193.6,235.4,184.2,235.4z"/>
			<path class="st4" d="M184.2,203.4c8.3,0,15,6.7,15,15s-6.7,15-15,15c-8.3,0-15-6.7-15-15S175.9,203.4,184.2,203.4 M184.2,199.4
				c-10.5,0-19,8.5-19,19s8.5,19,19,19s19-8.5,19-19S194.7,199.4,184.2,199.4L184.2,199.4z"/>
		</g>
		<g>
			<path class="st4" d="M180,213.7c1.5-0.8,2.9-1.2,4.3-1.2c1.2,0,2.1,0.3,2.9,1c0.8,0.7,1.1,1.6,1.1,2.6c0,1.3-0.6,2.5-1.7,3.6
				l-2.2,2.2h4.1v2.5h-8.2v-1.9l3.8-3.8c0.8-0.8,1.2-1.5,1.2-2.2c0-0.9-0.7-1.5-1.6-1.5c-0.3,0-0.6,0.1-0.9,0.1
				c-0.6,0.2-0.8,0.4-1.6,0.8L180,213.7z"/>
		</g>
	</g>
	<g>
		<rect x="18.1" y="327.5" class="st5" width="111.3" height="110.5"/>
		<rect x="26.6" y="332.6" class="st4" width="94.3" height="79.9"/>
		<rect x="25.7" y="415.9" class="st4" width="95.2" height="3.4"/>
		<rect x="30.8" y="422.7" class="st4" width="85" height="3.4"/>
		<path class="st2" d="M41.7,350.7c0.5,2.8,2.3,9.9,2.3,12.3c0,3.9,4.3,14.2,6.6,17.2c1.2,2.4,1.2,3.9,1.4,6.5
			c0.1,1.3-0.4,11.4-0.9,11.9c-0.5,0.6-0.6,1.4-0.8,1.5c-0.2,0.1-0.8,0.3-1.1,0.4c-0.3,0.1-1-0.3-1.7,0.2c-0.3,0.2-0.4,0.3-0.7,0.4
			c-0.3,0.1-0.7,0.2-0.9,0.4c-0.3,0.3-0.9,1-0.3,1.3c0.5,0.2,0.7,0.5,1.4,0.4c0.4,0,0.4-0.2,0.6-0.1c0.1,0.1,0.2,0.4,0.7,0.4
			c0.5,0,1.4,0.1,1.9-0.1c0.4-0.1,0.5,0.1,0.4,0.3c-0.2,0.2,0,0-0.7,0.4c-0.9,0.4-1.9,0.7-2.7,1.1c-0.4,0.2-0.7,0.4-1,0.8
			c-0.9,1.1,1,1.3,1.7,1.3c0.6,0,1.2,0,1.5,0.1c0.3,0,0.7-0.1,0.8-0.1c0.5,0,1,0,1.5-0.1c1.2-0.2,2-1.9,2-2.8c0-0.2,0.2-0.8,0.2-0.9
			c0-0.1,0.4-0.6,0.6-0.9c0.7-1.2,2-2.1,2.7-3.7c0.2-0.5,0.9-2.4,0.9-2.8c0-1.7,1.1-4.9,1.8-6.5c1-1.5,1.8-4.7,3.3-6.4
			c0.5-0.5,1-0.9,1.6-0.9c4.8-0.7,5.1-0.4,9.5-2.9c0,0,3.7-2.5,4.1-2.7c2-1.5,6.5-0.6,7.7,1.4c1.7,2.7,3.9,5.3,6.4,7.4
			c1.2,1,5.5,4.7,5.7,5.4c0.3,0.9,0.8,1.7,1.1,2.6c0.2,0.7,0.5,4-0.1,4.4c-0.3,0.2-1.3,0.2-1.5,0.3c-0.2,0.1-0.7,0.1-1.1,0.4
			c-0.3,0.3-1,0.5-1,0.5c-0.3,0.6,0,0.7,0.3,1c0.1,0.1,0.4,0.5,0.7,0.5c0.2,0,1.5,0.3,1.5,0.3c0.6,0.2,1.8,0.2,2.5-0.1
			c0.3-0.1,0.7-0.3,0.8-0.6c0.1-0.3,0.3-1.1,0.3-1.3c0-0.3,0.2-1.5,0.2-1.5c0.2-0.5,0.8-3.3,0.9-3.4c0.1-0.1,0.3,0.1,0.4,0.2
			c0.3,0.4,0.6,1,0.8,1.5c0.7,1.5,2.4,6.7,1.4,7.8c-0.2,0.2-0.9,0.3-1,0.4c-0.6,0.4-2.9,1.1-1.3,2.3c0.8,0.6,2.3,0.2,3.3,0.2
			c0.1,0,0.7,0.2,1.1,0c0.5-0.3,1.6-1,1.4-1.6c-0.1-0.5-0.2-1.2-0.2-1.8c0-1.4,0.1-3.1,0-4.5c-0.1-1.2-0.6-2.9-0.8-4.2
			c0,0-0.2-1.7-0.3-1.8c-0.1-0.1-0.2-0.5-0.4-0.7c-2.5-2.4-3.5-3.1-5-6.2c-0.1-0.3-0.1-5-0.1-5c0.1-1.3,0.3-2.7,0.3-4.1
			c0-0.9-0.8-7-1-7.5c-0.5-2.2-1.9-3.9-2-5.5c0-0.8,0.4-1.6,0.6-2.4c0,0,1.2-3.6,1.2-4.4c1-9.6-14.9-14.9-19.1-4.3
			c-0.9,2.3-1.4,5,0.3,7c0,0-1.1,0-1.9,0.2c-6.4,1.3-10.7,0.9-17-0.7c-3.3-0.8-6.1-1.9-6.4-2.7c-0.2-0.5-0.6-2.6-0.7-3.1
			c-0.1-0.5-0.2-2.9-0.2-2.9c0-0.5-0.1-1.1,0.1-1.5c0.9-1.8,0.3-1.9,0.6-3.7c0.2-1.3,0.3-1.6,0.2-2.9c0-0.4-0.2-0.9-0.3-1.3
			c0-0.2-0.1-0.3-0.2-0.4c-0.3-0.3-0.5-0.5-0.9-0.2c-0.3,0.2-0.5,0.7-0.7,1c-1,1.3-2,3.2-3.5,4c-1.3-0.2-3.2-0.1-5,0.2
			c0,0-0.5-0.4-0.6-0.7c-0.6-1.4-2.8-2.8-4-3.8c-0.3-0.2-0.5-0.5-0.8-0.7c0,0-0.5-0.5-0.7-0.4c-0.3,0-0.5,0-0.5,0.5
			c0,0.5,0.2,0.9,0.1,1.6C39.7,346.3,41.2,347.9,41.7,350.7L41.7,350.7z M89.8,352.9c2.4-0.6,6.2,1.4,5.5,4.1c-0.6,2.3-1,2.5-3.7,2
			c-3.5-0.5-4.6,0.6-6.6-0.5C83.5,357.7,86.9,353.6,89.8,352.9z"/>
	</g>
	<g>
		<g>
			<path class="st3" d="M184.2,564c-9.4,0-17-7.6-17-17s7.6-17,17-17s17,7.6,17,17S193.6,564,184.2,564z"/>
			<path class="st4" d="M184.2,532c8.3,0,15,6.7,15,15c0,8.3-6.7,15-15,15c-8.3,0-15-6.7-15-15C169.2,538.8,175.9,532,184.2,532
				 M184.2,528c-10.5,0-19,8.5-19,19s8.5,19,19,19s19-8.5,19-19S194.7,528,184.2,528L184.2,528z"/>
		</g>
		<g>
			<path class="st4" d="M179.5,550.6v-2.1l5.1-7.4h3v7.1h1.3v2.3h-1.3v2.3h-2.8v-2.3H179.5z M182.3,548.3h2.4v-3.5L182.3,548.3z"/>
		</g>
	</g>
	<g>
		<rect x="6.8" y="507" class="st6" width="134.9" height="104"/>
		<rect x="15.7" y="515.1" class="st4" width="54.4" height="39"/>
		<rect x="72.2" y="561.4" class="st4" width="54.4" height="39"/>
		<g>
			<rect x="75.8" y="515.1" class="st4" width="47.1" height="4.9"/>
			<rect x="75.8" y="524.1" class="st4" width="36.6" height="4.9"/>
			<rect x="75.8" y="534.2" class="st4" width="47.1" height="2.4"/>
			<rect x="75.8" y="539.9" class="st4" width="47.1" height="2.4"/>
			<rect x="75.8" y="545.6" class="st4" width="47.1" height="2.4"/>
			<rect x="75.8" y="551.3" class="st4" width="47.1" height="2.4"/>
		</g>
		<g>
			<rect x="15.7" y="561.4" class="st4" width="47.1" height="4.9"/>
			<rect x="15.7" y="570.4" class="st4" width="36.6" height="4.9"/>
			<rect x="15.7" y="580.5" class="st4" width="47.1" height="2.4"/>
			<rect x="15.7" y="586.2" class="st4" width="47.1" height="2.4"/>
			<rect x="15.7" y="591.9" class="st4" width="47.1" height="2.4"/>
			<rect x="15.7" y="597.6" class="st4" width="47.1" height="2.4"/>
		</g>
	</g>
	<g>
		<g>
			<path class="st3" d="M184.2,732.4c-9.4,0-17-7.6-17-17s7.6-17,17-17s17,7.6,17,17S193.6,732.4,184.2,732.4z"/>
			<path class="st4" d="M184.2,700.4c8.3,0,15,6.7,15,15c0,8.3-6.7,15-15,15c-8.3,0-15-6.7-15-15
				C169.2,707.1,175.9,700.4,184.2,700.4 M184.2,696.4c-10.5,0-19,8.5-19,19s8.5,19,19,19s19-8.5,19-19S194.7,696.4,184.2,696.4
				L184.2,696.4z"/>
		</g>
		<g>
			<path class="st4" d="M181.1,718c0.9,0.6,1.7,0.9,2.5,0.9c1.1,0,1.8-0.5,1.8-1.4c0-1-0.8-1.6-2.2-1.6c-0.8,0-1.5,0.1-2.4,0.3v-6.7
				h7.2v2.5h-4.5v1.9c0.2,0,0.4,0,0.7,0c1.3,0,2.3,0.4,3,1c0.8,0.7,1.1,1.6,1.1,2.7c0,1.1-0.4,2-1.3,2.8s-1.9,1.1-3.3,1.1
				c-1.4,0-2.7-0.4-3.9-1.1L181.1,718z"/>
		</g>
	</g>
	<g>
		<rect x="22.5" y="696.5" class="st7" width="123" height="51"/>
		<line class="st8" x1="22.5" y1="712.5" x2="146" y2="712.5"/>
		<g>
			<path class="st1" d="M32.7,708.7v-8.1h2.1l2.3,3.2l2.3-3.2h2.1v8.1h-2v-5.1l-1.8,2.5h-1.2l-1.8-2.5v5.1H32.7z"/>
			<path class="st1" d="M43.6,703.5c0.6-0.6,1.4-0.9,2.4-0.9s1.8,0.3,2.4,0.9c0.6,0.6,0.9,1.3,0.9,2.2c0,0.9-0.3,1.7-0.9,2.2
				c-0.6,0.6-1.4,0.9-2.4,0.9s-1.8-0.3-2.4-0.9c-0.6-0.6-0.9-1.3-0.9-2.2C42.7,704.8,43,704,43.6,703.5z M46.1,707.2
				c0.7,0,1.2-0.6,1.2-1.5c0-0.9-0.5-1.5-1.2-1.5s-1.2,0.6-1.2,1.5C44.8,706.6,45.3,707.2,46.1,707.2z"/>
			<path class="st1" d="M51,703.5c0.6-0.6,1.4-0.9,2.4-0.9c0.9,0,1.7,0.2,2.4,0.7l-0.8,1.4c-0.5-0.3-0.9-0.4-1.3-0.4
				c-0.9,0-1.4,0.6-1.4,1.4s0.6,1.4,1.4,1.4c0.4,0,0.8-0.1,1.3-0.4l0.8,1.4c-0.8,0.5-1.6,0.7-2.4,0.7c-1,0-1.8-0.3-2.4-0.9
				c-0.6-0.6-0.9-1.3-0.9-2.2C50.1,704.8,50.4,704,51,703.5z"/>
			<path class="st1" d="M56.5,708.7v-5.9h2v2.1h0.3l1.5-2.1h2.2l-2,2.8l2.1,3.1h-2.3l-1.5-2.2h-0.3v2.2H56.5z"/>
			<path class="st1" d="M63.1,708.7v-5.9h3c0.6,0,1.2,0.2,1.6,0.5c0.4,0.3,0.6,0.7,0.6,1.2c0,0.5-0.2,0.9-0.7,1.2
				c0.5,0.3,0.9,0.8,0.9,1.4c0,0.5-0.2,0.9-0.6,1.2c-0.4,0.3-1,0.5-1.6,0.5H63.1z M65.1,705.1h0.7c0.3,0,0.5-0.2,0.5-0.5
				c0-0.3-0.2-0.5-0.5-0.5h-0.7V705.1z M65.1,707.3h0.8c0.7,0.1,0.8-1.1,0-1h-0.8V707.3z"/>
			<path class="st1" d="M71.9,704.9c0.3,0,0.6,0,1,0.1v0c0-0.5-0.4-0.8-1-0.8c-0.6,0-1.2,0.1-1.9,0.4l-0.5-1.5
				c0.9-0.3,1.8-0.5,2.7-0.5c0.8,0,1.5,0.2,2,0.7c0.5,0.4,0.7,1,0.7,1.7v2c0,0.2,0.1,0.3,0.3,0.3c0.1,0,0.2,0,0.3,0l0.1,1.5
				c-0.3,0.1-0.7,0.1-1,0.1c-0.6,0-1-0.3-1.3-0.7c-0.5,0.4-1.3,0.7-1.9,0.7c-0.6,0-1.2-0.2-1.6-0.5c-0.4-0.4-0.6-0.8-0.6-1.4
				C69.1,705.6,70.1,704.9,71.9,704.9z M71.9,707.4c0.6,0,1-0.4,1-1v-0.2c-0.3-0.1-0.5-0.1-0.8-0.1c-0.6,0-1,0.3-1,0.7
				C71.1,707.1,71.4,707.4,71.9,707.4z"/>
		</g>
		<line class="st9" x1="77" y1="700" x2="77" y2="710"/>
		<text transform="matrix(1 0 0 1 31.25 725.5)" class="st10 st11 st12">Санкт-Петербург</text>
		<text transform="matrix(1 0 0 1 31.25 740.5)" class="st10 st11 st12">Екатеринбург</text>
	</g>
	<g>
		<g>
			<path class="st3" d="M184.2,897.7c-9.4,0-17-7.6-17-17s7.6-17,17-17s17,7.6,17,17S193.6,897.7,184.2,897.7z"/>
			<path class="st4" d="M184.2,865.7c8.3,0,15,6.7,15,15c0,8.3-6.7,15-15,15c-8.3,0-15-6.7-15-15
				C169.2,872.4,175.9,865.7,184.2,865.7 M184.2,861.7c-10.5,0-19,8.5-19,19s8.5,19,19,19s19-8.5,19-19S194.7,861.7,184.2,861.7
				L184.2,861.7z"/>
		</g>
		<g>
			<path class="st4" d="M181,876.3c1-1.2,2.3-1.7,3.9-1.7c1.2,0,2.4,0.3,3.4,0.8l-1,2.2c-0.8-0.4-1.6-0.6-2.3-0.6
				c-1.5,0-2.5,0.9-2.6,2.5c0.7-0.5,1.5-0.8,2.4-0.8c1.1,0,2.1,0.4,2.8,1.1c0.7,0.7,1.1,1.6,1.1,2.8c0,1.2-0.4,2.3-1.2,3
				s-1.9,1.2-3.2,1.2c-3,0-4.8-2.1-4.8-5.6C179.6,879.1,180,877.5,181,876.3z M184.3,884.4c1,0,1.7-0.7,1.7-1.7c0-1-0.7-1.6-1.6-1.6
				c-1,0-1.7,0.6-1.7,1.5C182.6,883.7,183.3,884.4,184.3,884.4z"/>
		</g>
	</g>
	<g>
		<polygon class="st1" points="124.1,1062.9 23,1062.9 23,1034.9 124.1,1034.9 139,1048.9 		"/>
		<g>
			<g>
				<path class="st4" d="M30.2,1050.5c1.7,0.6,3.1,1,4.1,1c1.3,0,2-0.5,2-1.3c0-2.2-6.9-0.6-6.9-5.6c0-1.2,0.5-2.2,1.4-2.9
					c1-0.7,2.2-1.1,3.7-1.1c1.5,0,3.1,0.3,4.8,0.9l-0.8,2.7c-1.4-0.5-2.6-0.8-3.7-0.8c-1.2,0-1.9,0.4-1.9,1.2c0,2.1,6.9,0.4,6.9,5.6
					c0,1.2-0.5,2.2-1.5,3c-1,0.7-2.2,1.1-3.8,1.1c-1.7,0-3.4-0.4-5.2-1.1L30.2,1050.5z"/>
				<path class="st4" d="M40.2,1054l5.3-13.2h3.3l5.3,13.2h-3.6l-1-2.7h-4.8l-1,2.7H40.2z M45.7,1048.8h3l-1.5-4L45.7,1048.8z"/>
				<path class="st4" d="M55.3,1054v-13.2h3.6v10.4h5.3v2.7H55.3z"/>
				<path class="st4" d="M65.9,1054v-13.2h9.5v2.7h-5.9v2.5h5.3v2.6h-5.3v2.8h6.3v2.7H65.9z"/>
			</g>
			<text transform="matrix(1 0 0 1 82.1895 1053.3972)" class="st4 st11 st13">50%</text>
		</g>
		<path class="st4" d="M129,1050.8L129,1050.8c-1.1,0-1.9-0.9-1.9-1.9l0,0c0-1.1,0.9-1.9,1.9-1.9l0,0c1.1,0,1.9,0.9,1.9,1.9l0,0
			C130.9,1049.9,130.1,1050.8,129,1050.8z"/>
	</g>
	<g>
		<g>
			<path class="st3" d="M184.2,1063c-9.4,0-17-7.6-17-17s7.6-17,17-17s17,7.6,17,17S193.6,1063,184.2,1063z"/>
			<path class="st4" d="M184.2,1031c8.3,0,15,6.7,15,15s-6.7,15-15,15c-8.3,0-15-6.7-15-15S175.9,1031,184.2,1031 M184.2,1027
				c-10.5,0-19,8.5-19,19s8.5,19,19,19s19-8.5,19-19S194.7,1027,184.2,1027L184.2,1027z"/>
		</g>
		<g>
			<path class="st4" d="M180.1,1042.6v-2.5h8.3v1.9l-4.2,9.8h-3.2l4-9.3H180.1z"/>
		</g>
	</g>
	<g>
		<polygon class="st1" points="56,835.2 56.4,927.3 50.5,923.4 		"/>
		<g>
			<polygon class="st14" points="119,922.7 56,927.3 56,835.1 119,837.3 			"/>
			<g>
				<polygon class="st15" points="119,853.2 56,852.4 56.4,883 119,881.6 				"/>
				<g>
					<g>
						<path class="st1" d="M87.8,864.2L87.8,864.2c2.1,0,3.7,0.7,4.6,1.4c0.2,0.2,0.5,0.1,0.7-0.1c0.2-0.2,0.1-0.5-0.1-0.7
							c-1.3-1-3.2-1.6-5.1-1.6l0,0c-2,0-3.9,0.6-5.2,1.6c-0.2,0.2-0.3,0.5-0.1,0.7c0.1,0.1,0.2,0.2,0.4,0.2c0.1,0,0.2,0,0.3-0.1
							C84,864.9,85.7,864.2,87.8,864.2"/>
						<path class="st1" d="M92.5,866.4c0.1-0.2,0.1-0.4,0-0.5c-1.1-0.9-2.8-1.5-4.6-1.5c-1.8,0-3.6,0.6-4.7,1.5
							c-0.1,0.1-0.2,0.3,0,0.5c0.1,0.1,0.2,0.1,0.3,0.1c0.1,0,0.1,0,0.2-0.1c1-0.8,2.6-1.4,4.3-1.4c1.7,0,3.3,0.5,4.2,1.3
							C92.2,866.6,92.4,866.5,92.5,866.4"/>
						<path class="st1" d="M80.7,861.6L80.7,861.6c0.2,0,0.4-0.1,0.6-0.2c0.3-0.2,0.4-0.4,0.5-0.7c0.1-0.3,0-0.6-0.1-0.9
							c-0.2-0.4-0.6-0.6-1-0.6c-0.2,0-0.4,0.1-0.6,0.1c-0.3,0.2-0.4,0.4-0.5,0.7c-0.1,0.3,0,0.6,0.1,0.9
							C79.9,861.4,80.3,861.6,80.7,861.6"/>
						<path class="st1" d="M87.8,862.5c0.6,0,1.1-0.5,1.1-1.1s-0.5-1.1-1.1-1.1c-0.6,0-1.1,0.5-1.1,1.1S87.2,862.5,87.8,862.5"/>
						<path class="st1" d="M87.8,859.7c0.6,0,1.1-0.5,1.1-1.1s-0.5-1.1-1.1-1.1c-0.6,0-1.1,0.5-1.1,1.1
							C86.7,859.2,87.2,859.7,87.8,859.7"/>
						<path class="st1" d="M84.6,860.7c-0.6,0.2-0.9,0.8-0.8,1.4c0.1,0.5,0.6,0.8,1.1,0.8h0c0.1,0,0.2,0,0.3,0
							c0.3-0.1,0.5-0.3,0.7-0.5c0.1-0.3,0.2-0.6,0.1-0.9c-0.1-0.5-0.6-0.8-1.1-0.8C84.8,860.7,84.7,860.7,84.6,860.7"/>
						<path class="st1" d="M81.1,862.7c-0.1,0.3,0,0.6,0.1,0.9c0.2,0.3,0.6,0.6,0.9,0.6l0,0c0.2,0,0.4-0.1,0.6-0.2
							c0.3-0.2,0.4-0.4,0.5-0.7c0.1-0.3,0-0.6-0.1-0.9c-0.2-0.4-0.6-0.6-1-0.6c-0.2,0-0.4,0.1-0.6,0.2
							C81.3,862.1,81.1,862.4,81.1,862.7"/>
						<path class="st1" d="M90.4,862.9c0.1,0,0.2,0,0.3,0c0.5,0,0.9-0.3,1-0.8c0.2-0.6-0.2-1.2-0.8-1.4c-0.1,0-0.2,0-0.3,0
							c-0.5,0-0.9,0.3-1,0.8C89.5,862.1,89.8,862.7,90.4,862.9"/>
						<path class="st1" d="M91.1,860.2c0.1,0,0.2,0,0.3,0c0.5,0,0.9-0.3,1-0.8c0.2-0.6-0.2-1.2-0.8-1.4c-0.1,0-0.2,0-0.3,0
							c-0.5,0-0.9,0.3-1,0.8C90.2,859.4,90.5,860,91.1,860.2"/>
						<path class="st1" d="M92.3,863.3c0.1,0.3,0.2,0.5,0.5,0.7c0.2,0.1,0.4,0.2,0.5,0.2c0.4,0,0.7-0.2,0.9-0.6
							c0.1-0.3,0.2-0.6,0.1-0.9c-0.1-0.3-0.2-0.5-0.5-0.7c-0.2-0.1-0.4-0.2-0.5-0.2c-0.4,0-0.7,0.2-0.9,0.6
							C92.3,862.7,92.2,863,92.3,863.3"/>
						<path class="st1" d="M94.2,861.5c0.2,0.1,0.4,0.2,0.5,0.2c0.4,0,0.7-0.2,0.9-0.6c0.1-0.3,0.2-0.6,0.1-0.9
							c-0.1-0.3-0.2-0.5-0.5-0.7c-0.2-0.1-0.4-0.2-0.5-0.2c-0.4,0-0.7,0.2-0.9,0.6c-0.1,0.3-0.2,0.6-0.1,0.9
							C93.8,861.1,93.9,861.4,94.2,861.5"/>
						<path class="st1" d="M84.1,860.2L84.1,860.2c0.1,0,0.2,0,0.3,0c0.6-0.2,0.9-0.8,0.8-1.4c-0.1-0.5-0.6-0.8-1.1-0.8
							c-0.1,0-0.2,0-0.3,0c-0.6,0.2-0.9,0.8-0.8,1.4C83.2,859.8,83.6,860.2,84.1,860.2"/>
						<path class="st1" d="M103.8,872.7v-4.5c0-0.4-0.3-0.7-0.6-0.7c-0.3,0-0.6,0.3-0.6,0.7v4.5c0,0.4,0.3,0.7,0.6,0.6
							C103.6,873.4,103.8,873.1,103.8,872.7"/>
						<path class="st1" d="M86,872.3l-1.2,0c0,0-0.1,0-0.1-0.1v-3.8c0-0.3-0.3-0.6-0.6-0.6c-0.3,0-0.6,0.3-0.6,0.6v4.7
							c0,0.2,0.2,0.4,0.4,0.4l2.2,0c0.3,0,0.6-0.3,0.6-0.6C86.6,872.6,86.4,872.3,86,872.3"/>
						<path class="st1" d="M102,872.5v-4.3c0-0.3-0.3-0.6-0.6-0.6c-0.3,0-0.6,0.3-0.6,0.6v2.6l0,0l0,0l-1.4-2.7
							c-0.1-0.3-0.4-0.4-0.7-0.4c-0.4,0-0.8,0.4-0.8,0.8v4.3c0,0.3,0.3,0.6,0.6,0.6c0.3,0,0.6-0.3,0.6-0.6v-2.6c0,0,0,0,0,0l0,0
							l1.5,2.7c0.1,0.2,0.4,0.4,0.6,0.4C101.7,873.3,102,873,102,872.5"/>
						<path class="st1" d="M108,867.6c-0.3,0-0.6,0.3-0.6,0.6v2.6l0,0l0,0l-1.4-2.6c-0.1-0.3-0.4-0.4-0.7-0.4
							c-0.4,0-0.8,0.4-0.8,0.8v4.2c0,0.3,0.3,0.6,0.6,0.6c0.3,0,0.6-0.3,0.6-0.6v-2.6c0,0,0,0,0,0l0,0l1.4,2.7
							c0.1,0.2,0.4,0.4,0.6,0.4c0.4,0,0.7-0.4,0.7-0.8v-4.3C108.5,867.9,108.3,867.6,108,867.6"/>
						<path class="st1" d="M79.8,868.5c0-0.3-0.3-0.6-0.6-0.6c-0.2,0-0.3,0.1-0.4,0.2l-1.4,1.5c0,0,0,0-0.1,0c0,0,0,0-0.1,0
							l-1.4-1.5c-0.1-0.1-0.3-0.2-0.4-0.2c-0.3,0-0.6,0.3-0.6,0.6c0,0.2,0.1,0.3,0.2,0.4l1.7,2l0,2.1c0,0.3,0.3,0.6,0.6,0.6
							c0.3,0,0.6-0.3,0.6-0.6l0-2.1l1.7-2C79.8,868.8,79.8,868.6,79.8,868.5"/>
						<path class="st1" d="M72.6,872.3c-0.8,0-1.5-0.7-1.5-1.5s0.7-1.6,1.5-1.6c0.8,0,1.5,0.7,1.5,1.5
							C74.1,871.6,73.4,872.3,72.6,872.3 M72.6,867.9c-1.6,0-2.8,1.3-2.8,2.9c0,1.6,1.3,2.9,2.8,2.9c1.6,0,2.8-1.3,2.8-2.9
							S74.2,867.9,72.6,867.9"/>
						<path class="st1" d="M95,871.1l-0.6,0v-0.9L95,871.1L95,871.1C95.1,871,95.1,871.1,95,871.1 M94.3,868
							c-0.1-0.1-0.3-0.2-0.5-0.2c-0.3,0-0.6,0.2-0.6,0.5v4.5c0,0.3,0.3,0.6,0.6,0.6c0.3,0,0.6-0.3,0.6-0.6v-0.5l1.5,0l0.6,0.9
							c0.1,0.1,0.3,0.2,0.5,0.2c0.3,0,0.6-0.3,0.6-0.6c0-0.1,0-0.3-0.1-0.4L94.3,868z"/>
						<path class="st1" d="M81.5,871.2l-0.6,0c0,0,0,0,0,0l0,0l0.6-0.9L81.5,871.2L81.5,871.2z M82.1,867.8c-0.2,0-0.4,0.1-0.5,0.2
							l-3.3,4.6c-0.1,0.1-0.1,0.2-0.1,0.4c0,0.3,0.3,0.6,0.6,0.6c0.2,0,0.4-0.1,0.5-0.2l0.6-0.9l1.5,0v0.5c0,0.4,0.3,0.6,0.6,0.6
							c0.3,0,0.6-0.3,0.6-0.6v-4.4C82.7,868.1,82.5,867.8,82.1,867.8"/>
						<path class="st1" d="M92.8,872.5c0.1-0.1,0.1-0.2,0.1-0.4c0-0.3-0.3-0.6-0.6-0.6c-0.1,0-0.2,0-0.3,0.1l-0.5,0.3
							c-0.2,0.2-0.5,0.2-0.8,0.2c-0.8,0-1.4-0.7-1.4-1.5s0.6-1.6,1.4-1.6c0.3,0,0.5,0.1,0.8,0.2l0.5,0.3c0.1,0,0.2,0.1,0.3,0.1
							c0.3,0,0.6-0.3,0.6-0.6c0-0.2,0-0.3-0.1-0.4c-0.4-0.5-1.1-0.9-1.9-0.9c-1.5,0-2.7,1.3-2.7,2.8c0,1.8,1.4,2.8,2.6,2.8
							C91.6,873.5,92.4,873.1,92.8,872.5"/>
						<path class="st1" d="M67.7,870.5c-0.4,0-0.7-0.3-0.7-0.6c0-0.3,0.3-0.6,0.7-0.6c0.4,0,0.7,0.3,0.7,0.6
							C68.4,870.2,68.1,870.5,67.7,870.5 M69.8,873.1c0-0.1,0-0.2-0.1-0.3l-0.9-1.5c0.5-0.3,0.8-0.8,0.8-1.5c0-1.1-0.7-1.9-1.8-1.9
							c-0.6,0-1.1,0.2-1.4,0.5c-0.4,0.4-0.5,0.9-0.5,1.5l0.1,3.2c0,0.3,0.3,0.6,0.6,0.6c0.3,0,0.6-0.3,0.6-0.6l0-1.5
							c0,0,0-0.1,0.1-0.1l0,0l1.5,2c0.1,0.1,0.2,0.2,0.4,0.2C69.5,873.7,69.8,873.4,69.8,873.1"/>
						<path class="st1" d="M109.8,868.2l-0.1,0V868l0.1,0C109.8,868,109.8,868,109.8,868.2C109.8,868.1,109.8,868.2,109.8,868.2
							 M110,868.1c0-0.2-0.1-0.2-0.2-0.2l-0.2,0c-0.1,0-0.1,0-0.1,0.1v0.5c0,0.1,0,0.1,0.1,0.1c0.1,0,0.1,0,0.1-0.1v-0.2l0.1,0
							l0.1,0.2c0,0,0,0.1,0.1,0.1c0.1,0,0.1,0,0.1-0.1l0,0l-0.1-0.2C109.9,868.3,110,868.2,110,868.1"/>
						<path class="st1" d="M109.7,868.7c-0.2,0-0.5-0.2-0.5-0.5s0.2-0.5,0.5-0.5c0.2,0,0.5,0.2,0.5,0.5S110,868.7,109.7,868.7
							 M109.7,867.6c-0.3,0-0.6,0.3-0.6,0.7s0.3,0.6,0.6,0.6c0.3,0,0.6-0.3,0.6-0.7C110.3,867.9,110.1,867.6,109.7,867.6"/>
						<g>
							<path class="st1" d="M68.7,877.7c-0.2,0-0.3-0.1-0.4-0.2c-0.2-0.2-0.2-0.3-0.2-0.6s0-0.5,0.2-0.7c0.1-0.1,0.3-0.2,0.4-0.2
								c0.3,0,0.5,0.2,0.6,0.5l-0.2,0c0-0.2-0.2-0.3-0.3-0.3c-0.1,0-0.2,0-0.2,0.1c-0.1,0.1-0.1,0.2-0.1,0.5c0,0.3,0,0.4,0.1,0.5
								c0.1,0.1,0.1,0.1,0.2,0.1c0.2,0,0.3-0.1,0.3-0.3l0.2,0C69.2,877.5,69,877.7,68.7,877.7z"/>
							<path class="st1" d="M70.7,876.8c0,0.3,0,0.5-0.2,0.6c-0.1,0.1-0.3,0.2-0.4,0.2c-0.2,0-0.3-0.1-0.4-0.2
								c-0.2-0.2-0.2-0.4-0.2-0.6v-0.1c0-0.3,0-0.4,0.2-0.6c0.1-0.1,0.3-0.2,0.4-0.2c0.2,0,0.3,0.1,0.4,0.2c0.1,0.1,0.2,0.3,0.2,0.5
								V876.8z M70.4,876.3c-0.1-0.1-0.2-0.1-0.2-0.1c-0.1,0-0.2,0-0.2,0.1c-0.1,0.1-0.1,0.2-0.1,0.5v0.1c0,0.2,0,0.3,0.1,0.4
								c0.1,0.1,0.2,0.1,0.2,0.1c0.1,0,0.2,0,0.2-0.1c0.1-0.1,0.1-0.2,0.1-0.5C70.5,876.6,70.5,876.4,70.4,876.3z"/>
							<path class="st1" d="M71.8,877.6l-0.6,0V876l0.6,0c0.3,0,0.5,0.2,0.5,0.4c0,0.2-0.1,0.3-0.2,0.4c0.2,0.1,0.2,0.2,0.2,0.4
								C72.3,877.4,72.1,877.6,71.8,877.6z M71.8,876.2l-0.3,0v0.5l0.3,0c0.2,0,0.3-0.1,0.3-0.2C72,876.3,71.9,876.2,71.8,876.2z
								 M71.8,876.9l-0.4,0v0.5l0.4,0c0.2,0,0.3-0.1,0.3-0.3S71.9,876.9,71.8,876.9z"/>
							<path class="st1" d="M72.7,877.6V876l1,0v0.2l-0.8,0v0.5l0.6,0v0.2l-0.6,0v0.5l0.8,0v0.2L72.7,877.6L72.7,877.6z"/>
							<path class="st1" d="M74.7,876.9l-0.4,0v0.6l-0.2,0V876l0.6,0c0.3,0,0.5,0.2,0.5,0.5C75.2,876.7,75,876.9,74.7,876.9z
								 M74.7,876.2l-0.3,0v0.5l0.3,0c0.2,0,0.3-0.1,0.3-0.3C75,876.3,74.9,876.2,74.7,876.2z"/>
							<path class="st1" d="M75.6,877.5v-1.6l0.2,0v1.4l0.5,0v-1.4l0.2,0v1.4l0.5,0v-1.4l0.2,0v1.6L75.6,877.5z"/>
							<path class="st1" d="M77.8,877.5v-1.6l1,0v0.2l-0.8,0v0.5l0.6,0v0.2l-0.6,0v0.5l0.8,0v0.2L77.8,877.5L77.8,877.5z"/>
							<path class="st1" d="M80.1,877.5v-0.7l-0.6,0v0.7l-0.2,0v-1.6l0.2,0v0.7l0.6,0v-0.7l0.2,0v1.6L80.1,877.5z"/>
							<path class="st1" d="M81.3,877.5c-0.2,0-0.3-0.1-0.4-0.2c-0.1-0.2-0.1-0.3-0.1-0.6s0-0.5,0.1-0.6c0.1-0.1,0.3-0.2,0.4-0.2
								c0.3,0,0.5,0.2,0.5,0.5l-0.2,0c0-0.2-0.1-0.3-0.3-0.3c-0.1,0-0.2,0-0.2,0.1c-0.1,0.1-0.1,0.2-0.1,0.5s0,0.4,0.1,0.5
								c0.1,0.1,0.1,0.1,0.2,0.1c0.2,0,0.3-0.1,0.3-0.3l0.2,0C81.8,877.3,81.6,877.5,81.3,877.5z"/>
							<path class="st1" d="M82.7,876.1v1.4l-0.2,0v-1.4l-0.4,0v-0.2l1.1,0v0.2L82.7,876.1z"/>
							<path class="st1" d="M84.1,877.4l-0.6,0v-1.6l0.6,0c0.3,0,0.5,0.2,0.5,0.4c0,0.2-0.1,0.3-0.2,0.4c0.1,0.1,0.2,0.2,0.2,0.4
								C84.6,877.2,84.4,877.4,84.1,877.4z M84.1,876l-0.3,0v0.5l0.3,0c0.2,0,0.2-0.1,0.2-0.2C84.3,876.1,84.2,876,84.1,876z
								 M84.1,876.7l-0.4,0v0.5l0.4,0c0.2,0,0.2-0.1,0.2-0.2S84.2,876.7,84.1,876.7z"/>
							<path class="st1" d="M86,876.6c0,0.3,0,0.5-0.1,0.6c-0.1,0.1-0.2,0.2-0.4,0.2c-0.2,0-0.3-0.1-0.4-0.2
								c-0.1-0.1-0.1-0.4-0.1-0.6v-0.1c0-0.3,0-0.4,0.1-0.6c0.1-0.1,0.2-0.2,0.4-0.2c0.2,0,0.3,0.1,0.4,0.2c0.1,0.1,0.1,0.3,0.1,0.5
								V876.6z M85.7,876.1c-0.1-0.1-0.1-0.1-0.2-0.1c-0.1,0-0.2,0-0.2,0.1c-0.1,0.1-0.1,0.2-0.1,0.5v0.1c0,0.2,0,0.3,0.1,0.4
								c0.1,0.1,0.1,0.1,0.2,0.1c0.1,0,0.2,0,0.2-0.1c0.1-0.1,0.1-0.2,0.1-0.5S85.8,876.2,85.7,876.1z"/>
							<path class="st1" d="M87.7,877.4l-0.6,0v-1.6l0.6,0c0.3,0,0.5,0.2,0.5,0.4c0,0.2-0.1,0.3-0.2,0.4c0.1,0.1,0.2,0.2,0.2,0.4
								C88.1,877.2,87.9,877.3,87.7,877.4z M87.6,876l-0.3,0v0.5l0.3,0c0.2,0,0.2-0.1,0.2-0.2C87.9,876.1,87.8,876,87.6,876z
								 M87.6,876.7l-0.4,0v0.5l0.4,0c0.2,0,0.2-0.1,0.2-0.2C87.9,876.7,87.8,876.7,87.6,876.7z"/>
							<path class="st1" d="M89.1,877.3v-1.6l0.2,0v0.8l0.6-0.8l0.3,0l-0.6,0.7l0.6,0.8l-0.3,0l-0.6-0.8v0.8L89.1,877.3z"/>
							<path class="st1" d="M91.4,877.3l-0.1-0.3l-0.6,0l-0.1,0.3l-0.2,0l0.5-1.6l0.2,0l0.5,1.6L91.4,877.3z M91,876.1l-0.2,0.7
								l0.5,0L91,876.1z"/>
							<path class="st1" d="M91.7,877.3l0.6-0.8l-0.6-0.7l0.3,0l0.5,0.7v-0.8l0.2,0v0.8l0.5-0.8l0.3,0l-0.6,0.7l0.6,0.8l-0.3,0
								l-0.6-0.8v0.8l-0.2,0v-0.8l-0.6,0.8L91.7,877.3z"/>
							<path class="st1" d="M94.9,875.7v1.4l0.2,0v0.6l-0.2,0v-0.3l-0.9,0v0.3l-0.2,0V877l0.1,0c0.1-0.2,0.2-0.5,0.2-0.9v-0.5
								L94.9,875.7z M94.3,876.2c0,0.3,0,0.6-0.1,0.8l0.6,0v-1.1l-0.4,0V876.2z"/>
							<path class="st1" d="M96.5,876.4c0,0.3,0,0.4-0.1,0.6c-0.1,0.1-0.2,0.2-0.4,0.2c-0.2,0-0.3-0.1-0.4-0.2
								c-0.1-0.1-0.1-0.4-0.1-0.6v-0.1c0-0.3,0-0.4,0.1-0.6c0.1-0.1,0.2-0.2,0.4-0.2c0.2,0,0.3,0.1,0.4,0.2c0.1,0.1,0.1,0.3,0.1,0.5
								V876.4z M96.2,876c-0.1-0.1-0.1-0.1-0.2-0.1c-0.1,0-0.2,0-0.2,0.1c-0.1,0.1-0.1,0.2-0.1,0.5v0.1c0,0.2,0,0.3,0.1,0.4
								c0.1,0.1,0.1,0.1,0.2,0.1c0.1,0,0.2,0,0.2-0.1c0.1-0.1,0.1-0.2,0.1-0.5S96.3,876,96.2,876z"/>
							<path class="st1" d="M97.7,877.2v-1.1l-0.7,1.1l-0.2,0v-1.6l0.2,0v1.1l0.7-1.1l0.2,0v1.6L97.7,877.2z M97.4,875.6
								c-0.2,0-0.3-0.1-0.3-0.3l0.2,0c0,0.1,0.1,0.1,0.2,0.1c0.1,0,0.1,0,0.2-0.2l0.2,0C97.7,875.5,97.6,875.5,97.4,875.6z"/>
							<path class="st1" d="M100,875.6v1.3l0.2,0v0.6l-0.2,0v-0.3l-0.9,0v0.3l-0.2,0V877l0.1,0c0.1-0.2,0.2-0.5,0.2-0.9v-0.5
								L100,875.6z M99.4,876.2c0,0.3,0,0.6-0.1,0.8l0.6,0v-1.1l-0.4,0V876.2z"/>
							<path class="st1" d="M100.5,877.1v-1.5l0.9,0v0.2l-0.7,0v0.4l0.6,0v0.2l-0.6,0v0.5l0.7,0v0.2L100.5,877.1L100.5,877.1z"/>
							<path class="st1" d="M102.3,875.8v1.3l-0.2,0v-1.3l-0.4,0v-0.2l1,0v0.2L102.3,875.8z"/>
							<path class="st1" d="M103.8,877.1l-0.1-0.3l-0.6,0l-0.1,0.3l-0.2,0l0.5-1.6l0.2,0l0.5,1.5L103.8,877.1z M103.4,875.9
								l-0.2,0.7l0.4,0L103.4,875.9z"/>
							<path class="st1" d="M105.1,877.1v-1.3l-0.4,0v0.5c0,0.7-0.2,0.8-0.4,0.9l-0.1,0v-0.2l0,0c0.2,0,0.3-0.1,0.3-0.7v-0.7l0.9,0
								v1.5L105.1,877.1z"/>
							<path class="st1" d="M106.6,877.1v-1.1l-0.7,1.1l-0.2,0v-1.5l0.2,0v1.1l0.7-1.1l0.2,0v1.5L106.6,877.1z"/>
						</g>
					</g>
				</g>
			</g>
		</g>
	</g>
	<g>
		<g>
			<path class="st3" d="M184.2,1223.3c-9.4,0-17-7.6-17-17s7.6-17,17-17s17,7.6,17,17S193.6,1223.3,184.2,1223.3z"/>
			<path class="st4" d="M184.2,1191.3c8.3,0,15,6.7,15,15s-6.7,15-15,15c-8.3,0-15-6.7-15-15S175.9,1191.3,184.2,1191.3
				 M184.2,1187.3c-10.5,0-19,8.5-19,19s8.5,19,19,19s19-8.5,19-19S194.7,1187.3,184.2,1187.3L184.2,1187.3z"/>
		</g>
		<g>
			<path class="st4" d="M181.5,1206.2c-1-0.5-1.7-1.5-1.7-2.6c0-1,0.4-1.8,1.2-2.4c0.8-0.6,1.9-0.9,3.2-0.9s2.4,0.3,3.2,0.9
				c0.8,0.6,1.2,1.4,1.2,2.4c0,1.1-0.6,2.1-1.7,2.6c1.2,0.6,1.9,1.6,1.9,2.8c0,1-0.4,1.9-1.3,2.5c-0.9,0.6-2,0.9-3.4,0.9
				s-2.5-0.3-3.4-0.9c-0.9-0.6-1.3-1.5-1.3-2.5C179.5,1207.8,180.2,1206.7,181.5,1206.2z M184.2,1210.1c0.9,0,1.6-0.6,1.6-1.3
				c0-0.7-0.5-1.2-1.6-1.5c-1.1,0.3-1.6,0.8-1.6,1.5C182.6,1209.6,183.3,1210.1,184.2,1210.1z M184.2,1205.1c1-0.3,1.4-0.7,1.4-1.3
				c0-0.7-0.6-1.2-1.4-1.2s-1.4,0.5-1.4,1.2C182.8,1204.4,183.2,1204.8,184.2,1205.1z"/>
		</g>
	</g>
	<g>
		<polyline class="st1" points="131.2,1192.8 107.6,1210.6 97,1218.6 86.6,1210.7 62.9,1192.8 		"/>
		<polygon class="st1" points="96.9,1221.3 86.3,1213 64.5,1230 129.4,1230 107.6,1213 		"/>
		<polygon class="st1" points="131.2,1228.5 109.1,1211.7 131.2,1195 		"/>
		<polygon class="st1" points="62.8,1228.5 84.9,1211.7 62.8,1195 		"/>
		<text transform="matrix(1 0 0 1 88.3857 1209.8936)" class="st4 st16 st17">@</text>
	</g>
	<g>
		<g>
			<path class="st3" d="M184.2,405.7c-9.4,0-17-7.6-17-17s7.6-17,17-17s17,7.6,17,17S193.6,405.7,184.2,405.7z"/>
			<path class="st4" d="M184.2,373.7c8.3,0,15,6.7,15,15s-6.7,15-15,15c-8.3,0-15-6.7-15-15S175.9,373.7,184.2,373.7 M184.2,369.7
				c-10.5,0-19,8.5-19,19s8.5,19,19,19s19-8.5,19-19S194.7,369.7,184.2,369.7L184.2,369.7z"/>
		</g>
		<g>
			<path class="st4" d="M180.8,391.6c1.1,0.5,2.1,0.8,3,0.8c0.9,0,1.6-0.5,1.6-1.3c0-0.8-0.8-1.4-1.9-1.4h-0.9v-2.2h0.9
				c1,0,1.7-0.5,1.7-1.3c0-0.7-0.5-1.1-1.3-1.1c-0.8,0-1.7,0.2-2.8,0.7l-1-2.3c1.4-0.6,2.8-0.9,4.2-0.9c1.1,0,2.1,0.3,2.8,0.9
				c0.7,0.6,1.1,1.4,1.1,2.4c0,1.2-0.6,2.2-1.6,2.6c1.1,0.4,1.9,1.6,1.9,2.9c0,1-0.4,1.8-1.2,2.5c-0.8,0.6-1.8,0.9-3,0.9
				c-1.6,0-3.1-0.3-4.5-1L180.8,391.6z"/>
		</g>
	</g>
</g>
<g id="Слой_2">
</g>
</svg>
